<svg width="586" height="423" viewBox="0 0 586 423" fill="none" xmlns="http://www.w3.org/2000/svg">
<path d="M98.3886 95.0948H0.0415039V327.772H98.3886V95.0948Z" fill="#E3323D"/>
<path d="M98.3577 82.756H51.0395C37.5122 82.756 24.5382 77.5068 14.968 68.1618C5.39769 58.8167 0.014091 46.1402 0 32.9174V0H47.35C54.0526 0 60.6893 1.29047 66.8817 3.79771C73.0741 6.30495 78.7009 9.97981 83.4404 14.6126C88.1798 19.2454 91.9392 24.7453 94.5042 30.7983C97.0692 36.8513 98.3895 43.3389 98.3895 49.8906L98.3577 82.756Z" fill="#0E5860"/>
<path d="M492.851 97.3606L442.875 221.994L392.803 95.0948L343.476 216.765L392.793 333.021L352.131 422.408H451.924L585.999 97.3814L492.851 97.3606Z" fill="#E3323D"/>
<path d="M286.451 95.0948L235.103 219.728L187.253 95.0948H111.044V155.286L182.032 327.824H283.856L379.556 95.1468L286.451 95.0948Z" fill="#E3323D"/>
</svg>
