<svg xmlns="http://www.w3.org/2000/svg" width="70" height="70" viewBox="0 0 70 70" fill="none">
<path opacity="0.7" d="M67.812 0C69.0202 0 69.9995 0.979316 69.9995 2.1875V63C69.9995 66.8654 66.8672 70 62.9995 70C59.1417 70 55.9995 66.873 55.9995 63V14H13.9995V2.1875C13.9995 0.979316 14.9788 0 16.187 0H67.812Z" fill="#C6C8C9"/>
<path opacity="0.7" d="M62.4161 11.0834V69.9753C58.8228 69.6791 55.9995 66.6693 55.9995 63V16.1875C55.9995 14.9793 55.0202 14 53.812 14H13.9995V7.58337H58.9161C60.8492 7.58337 62.4161 9.15031 62.4161 11.0834Z" fill="#BFC2C4"/>
<path d="M63 70H7C3.134 70 0 66.866 0 63V16.1875C0 14.9793 0.979316 14 2.1875 14H53.8125C55.0207 14 56 14.9793 56 16.1875C56 67.3096 55.8313 63.7321 56.3981 65.3334C57.3591 68.0516 59.9521 70 63 70Z" fill="#F9F9F9"/>
<path d="M56.398 65.3334H8.1665C6.23357 65.3334 4.6665 63.7663 4.6665 61.8334V14H53.8124C55.0206 14 55.9999 14.9793 55.9999 16.1875C55.9999 67.3096 55.8312 63.7321 56.398 65.3334Z" fill="white"/>
<g opacity="0.7">
<path opacity="0.7" d="M47.8336 47.6875H32.667C31.4589 47.6875 30.4795 46.7082 30.4795 45.5C30.4795 44.2918 31.4589 43.3125 32.667 43.3125H47.8336C49.0418 43.3125 50.0211 44.2918 50.0211 45.5C50.0211 46.7082 49.0418 47.6875 47.8336 47.6875Z" fill="#C6C8C9"/>
<path opacity="0.7" d="M47.8336 55.8541H32.667C31.4589 55.8541 30.4795 54.8748 30.4795 53.6666C30.4795 52.4584 31.4589 51.4791 32.667 51.4791H47.8336C49.0418 51.4791 50.0211 52.4584 50.0211 53.6666C50.0211 54.8748 49.0418 55.8541 47.8336 55.8541Z" fill="#C6C8C9"/>
<path opacity="0.7" d="M47.8336 64.0209H32.667C31.4589 64.0209 30.4795 63.0416 30.4795 61.8334C30.4795 60.6252 31.4589 59.6459 32.667 59.6459H47.8336C49.0418 59.6459 50.0211 60.6252 50.0211 61.8334C50.0211 63.0416 49.0418 64.0209 47.8336 64.0209Z" fill="#C6C8C9"/>
</g>
<path opacity="0.7" d="M47.8333 24.3541V35.1458C47.8333 36.3539 46.8539 37.3333 45.6458 37.3333H10.354C9.14582 37.3333 8.1665 36.3539 8.1665 35.1458V24.3541C8.1665 23.1459 9.14582 22.1666 10.354 22.1666H45.6456C46.8538 22.1666 47.8333 23.1461 47.8333 24.3541Z" fill="#BFC2C4"/>
<path opacity="0.7" d="M47.8335 24.3541V32.6666H16.3335C14.4006 32.6666 12.8335 31.0996 12.8335 29.1666V22.1666H45.646C46.854 22.1666 47.8335 23.1461 47.8335 24.3541Z" fill="#C6C8C9"/>
<path opacity="0.7" d="M24.4999 47.6875V59.6459C24.4999 60.8541 23.5206 61.8334 22.3124 61.8334H10.354C9.14582 61.8334 8.1665 60.8541 8.1665 59.6459V47.6875C8.1665 46.4793 9.14582 45.5 10.354 45.5H22.3124C23.5206 45.5 24.4999 46.4793 24.4999 47.6875Z" fill="#BFC2C3"/>
<path opacity="0.7" d="M24.5005 47.6875V57.75H15.7505C13.8176 57.75 12.2505 56.1829 12.2505 54.25V45.5H22.313C23.5212 45.5 24.5005 46.4793 24.5005 47.6875Z" fill="#C6C8C9"/>
</svg>