<svg width="262" height="82" viewBox="0 0 262 82" fill="none" xmlns="http://www.w3.org/2000/svg">
<rect x="1" y="1" width="259.753" height="80" fill="#FBFCFB"/>
<path d="M131.203 18.4824C130.394 17.9968 129.747 17.3493 129.262 16.7018C128.777 15.8924 128.615 15.0831 128.615 14.1118C128.615 13.1406 128.777 12.3312 129.262 11.5219C129.747 10.7125 130.394 10.065 131.203 9.74124C132.012 9.25562 132.982 9.09375 133.952 9.09375C134.761 9.09375 135.408 9.25562 136.055 9.4175C136.702 9.74124 137.187 10.065 137.672 10.5506L136.864 11.1981C136.055 10.3887 135.246 10.065 134.114 10.065C133.305 10.065 132.658 10.2269 132.012 10.5506C131.365 10.8744 130.879 11.36 130.556 12.0075C130.232 12.655 130.071 13.3025 130.071 13.95C130.071 14.7593 130.232 15.4068 130.556 15.8924C130.879 16.5399 131.365 16.8637 132.012 17.3493C132.658 17.8349 133.305 17.8349 134.114 17.8349C135.246 17.8349 136.217 17.5112 136.864 16.7018L137.834 17.673C137.349 18.1587 136.864 18.6443 136.217 18.8062C135.57 19.1299 134.761 19.1299 134.114 19.1299C132.982 19.1299 132.012 18.8062 131.203 18.4824Z" fill="#1D1D1B"/>
<path d="M142.848 18.4824C142.039 17.9968 141.392 17.3493 140.907 16.7018C140.422 15.8924 140.26 15.0831 140.26 14.1118C140.26 13.1406 140.422 12.3312 140.907 11.5219C141.392 10.7125 142.039 10.065 142.848 9.74124C143.657 9.25562 144.627 9.09375 145.598 9.09375C146.568 9.09375 147.539 9.25562 148.347 9.74124C149.156 10.2269 149.803 10.8744 150.288 11.5219C150.773 12.3312 150.935 13.1406 150.935 14.1118C150.935 15.0831 150.773 15.8924 150.288 16.7018C149.803 17.5112 149.156 18.1587 148.347 18.4824C147.539 18.968 146.568 19.1299 145.598 19.1299C144.465 19.1299 143.657 18.8062 142.848 18.4824ZM147.539 17.3493C148.185 17.0255 148.671 16.5399 148.994 15.8924C149.318 15.2449 149.479 14.5974 149.479 13.95C149.479 13.3025 149.318 12.4931 148.994 12.0075C148.671 11.5219 148.185 11.0362 147.539 10.5506C146.892 10.2269 146.245 10.065 145.598 10.065C144.789 10.065 144.142 10.2269 143.657 10.5506C143.01 10.8744 142.525 11.36 142.201 12.0075C141.878 12.655 141.554 13.1406 141.554 13.95C141.554 14.7593 141.716 15.4068 142.039 15.8924C142.363 16.5399 142.848 16.8637 143.495 17.3493C144.142 17.673 144.789 17.8349 145.436 17.8349C146.245 17.8349 146.892 17.673 147.539 17.3493Z" fill="#1D1D1B"/>
<path d="M163.064 8.93164V18.9678H161.932L155.948 11.5216V18.9678H154.492V8.93164H155.624L161.608 16.3778V8.93164H163.064Z" fill="#1D1D1B"/>
<path d="M176.168 8.93164V18.9678H175.036L169.051 11.5216V18.9678H167.434V8.93164H168.566L174.551 16.3778V8.93164H176.168Z" fill="#1D1D1B"/>
<path d="M187.809 17.6728V18.9678H180.531V8.93164H187.647V10.2266H181.986V13.3022H187V14.4353H181.986V17.6728H187.809Z" fill="#1D1D1B"/>
<path d="M193.309 18.4824C192.501 17.9968 191.854 17.3493 191.368 16.7018C190.883 15.8924 190.721 15.0831 190.721 14.1118C190.721 13.1406 190.883 12.3312 191.368 11.5219C191.854 10.7125 192.501 10.065 193.309 9.74124C194.118 9.25562 195.088 9.09375 196.059 9.09375C196.868 9.09375 197.514 9.25562 198.161 9.4175C198.808 9.74124 199.294 10.065 199.779 10.5506L198.808 11.5219C198 10.7125 197.191 10.3887 196.059 10.3887C195.25 10.3887 194.603 10.5506 193.956 10.8744C193.309 11.1981 192.824 11.6837 192.501 12.3312C192.177 12.9787 192.015 13.6262 192.015 14.2737C192.015 15.0831 192.177 15.7306 192.501 16.2162C192.824 16.8637 193.309 17.1874 193.956 17.673C194.603 18.1587 195.25 18.1587 196.059 18.1587C197.191 18.1587 198.161 17.8349 198.808 17.0255L199.779 17.9968C199.294 18.4824 198.808 18.968 198.161 19.1299C197.514 19.4536 196.706 19.4536 196.059 19.4536C194.927 19.1299 194.118 18.8062 193.309 18.4824Z" fill="#1D1D1B"/>
<path d="M205.115 10.2266H201.718V8.93164H209.967V10.2266H206.57V18.9678H205.115V10.2266Z" fill="#1D1D1B"/>
<path d="M213.043 8.93164H214.499V18.9678H213.043V8.93164Z" fill="#1D1D1B"/>
<path d="M227.438 8.93164V18.9678H226.306L220.322 11.5216V18.9678H218.866V8.93164H219.998L225.982 16.3778V8.93164H227.438Z" fill="#1D1D1B"/>
<path d="M238.921 13.95H240.377V17.8349C239.891 18.3205 239.244 18.4824 238.597 18.8062C237.951 18.968 237.304 19.1299 236.495 19.1299C235.524 19.1299 234.554 18.968 233.745 18.4824C232.937 17.9968 232.29 17.3493 231.804 16.7018C231.319 15.8924 231.157 15.0831 231.157 14.1118C231.157 13.1406 231.319 12.3312 231.804 11.5219C232.29 10.7125 232.937 10.065 233.745 9.74124C234.554 9.25562 235.524 9.09375 236.495 9.09375C237.304 9.09375 237.951 9.25562 238.759 9.4175C239.406 9.74124 240.053 10.065 240.377 10.5506L239.568 11.36C238.759 10.5506 237.789 10.2269 236.657 10.2269C235.848 10.2269 235.201 10.3887 234.554 10.7125C233.907 11.0362 233.422 11.5219 233.098 12.1693C232.775 12.8168 232.613 13.4643 232.613 14.1118C232.613 14.9212 232.775 15.5687 233.098 16.0543C233.422 16.7018 233.907 17.0255 234.554 17.5112C235.201 17.8349 235.848 17.9968 236.657 17.9968C237.627 17.9968 238.274 17.8349 239.083 17.3493V13.95H238.921Z" fill="#1D1D1B"/>
<path d="M136.373 27.876C137.182 28.5235 137.505 29.3329 137.505 30.466C137.505 31.5991 137.182 32.4085 136.373 33.056C135.564 33.7035 134.594 34.0272 133.3 34.0272H130.874V37.1028H129.418V27.0666H133.3C134.594 26.9048 135.726 27.2285 136.373 27.876ZM135.403 32.0847C135.888 31.761 136.05 31.1135 136.05 30.466C136.05 29.8185 135.888 29.171 135.403 28.8472C134.917 28.5235 134.27 28.1998 133.3 28.1998H130.874V32.7322H133.3C134.27 32.5703 134.917 32.4085 135.403 32.0847Z" fill="#1D1D1B"/>
<path d="M146.885 35.6425V36.9375H139.607V26.9014H146.723V28.1964H141.062V31.2719H146.076V32.5669H141.062V35.8044H146.885V35.6425Z" fill="#1D1D1B"/>
<path d="M151.093 36.29C150.284 35.8044 149.637 35.1569 149.152 34.5094C148.667 33.7 148.505 32.8907 148.505 31.9194C148.505 30.9482 148.667 30.1388 149.152 29.3295C149.637 28.5201 150.284 27.8726 151.093 27.5489C151.901 27.0632 152.872 26.9014 153.842 26.9014C154.813 26.9014 155.783 27.0632 156.592 27.5489C157.401 28.0345 158.047 28.682 158.533 29.3295C159.018 30.1388 159.18 30.9482 159.18 31.9194C159.18 32.8907 159.018 33.7 158.533 34.5094C158.047 35.3188 157.401 35.9663 156.592 36.29C155.783 36.7756 154.813 36.9375 153.842 36.9375C152.71 37.0994 151.901 36.7756 151.093 36.29ZM155.783 35.3188C156.43 34.995 156.915 34.5094 157.239 33.8619C157.562 33.2144 157.724 32.5669 157.724 31.9194C157.724 31.2719 157.562 30.4626 157.239 29.977C156.915 29.4913 156.43 29.0057 155.783 28.5201C155.136 28.1964 154.489 28.0345 153.842 28.0345C153.034 28.0345 152.387 28.1964 151.901 28.5201C151.254 28.8438 150.769 29.3295 150.446 29.977C150.122 30.6245 149.961 31.2719 149.961 31.9194C149.961 32.7288 150.122 33.3763 150.446 33.8619C150.769 34.5094 151.254 34.8332 151.901 35.3188C152.548 35.6425 153.195 35.8044 153.842 35.8044C154.489 35.8044 155.136 35.6425 155.783 35.3188Z" fill="#1D1D1B"/>
<path d="M168.237 27.8711C169.045 28.5186 169.369 29.328 169.369 30.4611C169.369 31.5942 169.045 32.4036 168.237 33.0511C167.428 33.6986 166.458 34.0223 165.164 34.0223H162.738V37.0979H161.282V27.0618H165.164C166.458 26.8999 167.59 27.2236 168.237 27.8711ZM167.266 32.0798C167.752 31.7561 167.913 31.1086 167.913 30.4611C167.913 29.8136 167.752 29.1661 167.266 28.8424C166.781 28.5186 166.134 28.1949 165.164 28.1949H162.738V32.7273H165.164C166.134 32.5655 166.781 32.4036 167.266 32.0798Z" fill="#1D1D1B"/>
<path d="M171.473 26.9014H172.929V35.6425H178.428V36.9375H171.635V26.9014H171.473Z" fill="#1D1D1B"/>
<path d="M187.323 35.6425V36.9375H180.044V26.9014H187.161V28.1964H181.5V31.2719H186.514V32.5669H181.5V35.8044H187.323V35.6425Z" fill="#1D1D1B"/>
<path d="M215.463 34.3475H210.126L208.993 36.9375H207.538L212.067 26.9014H213.522L218.051 36.9375H216.595L215.463 34.3475ZM214.978 33.2144L212.875 28.3582L210.773 33.2144H214.978Z" fill="#1D1D1B"/>
<path d="M228.241 26.9014V36.9375H227.109L221.125 29.4913V36.9375H219.669V26.9014H220.801L226.785 34.3475V26.9014H228.241Z" fill="#1D1D1B"/>
<path d="M231.154 26.9014H235.359C236.491 26.9014 237.3 27.0632 238.109 27.5489C238.918 28.0345 239.564 28.5201 240.05 29.3295C240.535 30.1388 240.697 30.9482 240.697 31.9194C240.697 32.8907 240.535 33.7 240.05 34.5094C239.564 35.3188 238.918 35.8044 238.109 36.29C237.3 36.7756 236.33 36.9375 235.359 36.9375H231.154V26.9014ZM235.359 35.6425C236.168 35.6425 236.815 35.4807 237.462 35.1569C238.109 34.8332 238.594 34.3475 238.918 33.8619C239.241 33.2144 239.403 32.5669 239.403 31.9194C239.403 31.1101 239.241 30.4626 238.918 29.977C238.594 29.4913 238.109 29.0057 237.462 28.682C236.815 28.3582 236.168 28.1964 235.359 28.1964H232.61V35.8044H235.359V35.6425Z" fill="#1D1D1B"/>
<path d="M137.505 50.5345C137.829 51.0201 137.99 51.5057 137.99 52.1532C137.99 52.9626 137.667 53.7719 137.02 54.0957C136.373 54.4194 135.402 54.7432 134.109 54.7432H129.256V44.707H133.785C134.917 44.707 135.888 44.8689 136.373 45.3545C137.02 45.8401 137.343 46.4876 137.343 47.297C137.343 47.7826 137.182 48.2682 137.02 48.592C136.696 48.9157 136.373 49.2395 136.049 49.4014C136.858 49.887 137.182 50.0488 137.505 50.5345ZM130.874 46.002V49.2395H133.785C134.594 49.2395 135.079 49.0776 135.564 48.7539C135.888 48.4301 136.211 48.1064 136.211 47.6208C136.211 47.1351 136.049 46.6495 135.564 46.4876C135.241 46.1639 134.594 46.002 133.785 46.002H130.874ZM136.049 53.2863C136.535 52.9626 136.696 52.6388 136.696 51.9913C136.696 50.8582 135.888 50.3726 134.27 50.3726H131.035V53.7719H134.27C134.917 53.7719 135.564 53.6101 136.049 53.2863Z" fill="#1D1D1B"/>
<path d="M143.652 53.7722C142.843 52.9628 142.52 51.8297 142.52 50.5347V44.8691H143.975V50.5347C143.975 52.6391 144.946 53.7722 146.725 53.7722C147.695 53.7722 148.342 53.4484 148.828 52.9628C149.313 52.4772 149.636 51.6678 149.636 50.5347V44.8691H151.092V50.5347C151.092 51.9916 150.768 53.1247 149.96 53.7722C149.151 54.5815 148.181 54.9053 146.887 54.9053C145.593 54.9053 144.299 54.5815 143.652 53.7722Z" fill="#1D1D1B"/>
<path d="M156.913 54.5815C156.266 54.4197 155.619 54.0959 155.295 53.6103L155.781 52.4772C156.104 52.8009 156.589 53.1247 157.236 53.2866C157.883 53.4484 158.53 53.6103 159.015 53.6103C159.824 53.6103 160.471 53.4484 160.956 53.1247C161.441 52.8009 161.603 52.4772 161.603 51.9916C161.603 51.6678 161.441 51.3441 161.28 51.1822C161.118 51.0203 160.795 50.8585 160.471 50.6966C160.148 50.5347 159.662 50.3728 159.015 50.3728C158.207 50.211 157.721 50.0491 157.236 49.8872C156.751 49.7253 156.428 49.4016 156.104 49.0779C155.781 48.7541 155.619 48.2685 155.619 47.621C155.619 47.1354 155.781 46.6497 156.104 46.1641C156.428 45.6785 156.751 45.3548 157.398 45.1929C158.045 45.031 158.692 44.8691 159.501 44.8691C160.148 44.8691 160.633 44.8691 161.28 45.031C161.927 45.1929 162.412 45.3548 162.735 45.6785L162.25 46.8116C161.765 46.4879 161.441 46.326 160.956 46.1641C160.471 46.0023 159.986 46.0023 159.501 46.0023C158.692 46.0023 158.045 46.1641 157.721 46.4879C157.236 46.8116 157.075 47.1354 157.075 47.621C157.075 47.9447 157.236 48.2685 157.398 48.4304C157.56 48.5922 157.883 48.7541 158.207 48.916C158.53 49.0778 159.015 49.2397 159.662 49.2397C160.471 49.4016 160.956 49.5635 161.441 49.7253C161.927 49.8872 162.25 50.211 162.574 50.5347C162.897 50.8585 163.059 51.3441 163.059 51.9916C163.059 52.4772 162.897 52.9628 162.574 53.4484C162.25 53.9341 161.927 54.2578 161.28 54.4197C160.633 54.5815 159.986 54.7434 159.177 54.7434C158.368 54.9053 157.56 54.9053 156.913 54.5815Z" fill="#1D1D1B"/>
<path d="M167.429 44.8691H168.884V54.9053H167.429V44.8691Z" fill="#1D1D1B"/>
<path d="M182.632 44.8691V54.9053H181.5L175.515 47.4591V54.9053H174.06V44.8691H175.192L181.176 52.3153V44.8691H182.632Z" fill="#1D1D1B"/>
<path d="M195.247 53.6103V54.9053H187.969V44.8691H195.086V46.1641H189.425V49.2397H194.439V50.5347H189.425V53.7722H195.247V53.6103Z" fill="#1D1D1B"/>
<path d="M200.583 54.5815C199.936 54.4197 199.29 54.0959 198.966 53.6103L199.451 52.4772C199.775 52.8009 200.26 53.1247 200.907 53.2866C201.554 53.4484 202.201 53.6103 202.686 53.6103C203.495 53.6103 204.142 53.4484 204.627 53.1247C205.112 52.8009 205.274 52.4772 205.274 51.9916C205.274 51.6678 205.112 51.3441 204.95 51.1822C204.789 51.0203 204.465 50.8585 204.142 50.6966C203.818 50.5347 203.333 50.3728 202.686 50.3728C201.877 50.211 201.392 50.0491 200.907 49.8872C200.422 49.7253 200.098 49.4016 199.775 49.0779C199.451 48.7541 199.29 48.2685 199.29 47.621C199.29 47.1354 199.451 46.6497 199.775 46.1641C200.098 45.6785 200.422 45.3548 201.069 45.1929C201.716 45.031 202.363 44.8691 203.171 44.8691C203.818 44.8691 204.303 44.8691 204.95 45.031C205.597 45.1929 206.083 45.3548 206.406 45.6785L205.921 46.8116C205.436 46.4879 205.112 46.326 204.627 46.1641C204.142 46.0023 203.657 46.0023 203.171 46.0023C202.363 46.0023 201.716 46.1641 201.392 46.4879C200.907 46.8116 200.745 47.1354 200.745 47.621C200.745 47.9447 200.907 48.2685 201.069 48.4304C201.23 48.5922 201.554 48.7541 201.877 48.916C202.201 49.0778 202.686 49.2397 203.333 49.2397C204.142 49.4016 204.627 49.5635 205.112 49.7253C205.597 49.8872 205.921 50.211 206.244 50.5347C206.568 50.8585 206.73 51.3441 206.73 51.9916C206.73 52.4772 206.568 52.9628 206.244 53.4484C205.921 53.9341 205.597 54.2578 204.95 54.4197C204.303 54.5815 203.656 54.7434 202.848 54.7434C202.039 54.9053 201.23 54.9053 200.583 54.5815Z" fill="#1D1D1B"/>
<path d="M211.745 54.5815C211.098 54.4197 210.451 54.0959 210.127 53.6103L210.612 52.4772C210.936 52.8009 211.421 53.1247 212.068 53.2866C212.715 53.4484 213.362 53.6103 213.847 53.6103C214.656 53.6103 215.303 53.4484 215.788 53.1247C216.273 52.8009 216.435 52.4772 216.435 51.9916C216.435 51.6678 216.273 51.3441 216.112 51.1822C215.95 51.0203 215.626 50.8585 215.303 50.6966C214.979 50.5347 214.494 50.3728 213.847 50.3728C213.039 50.211 212.553 50.0491 212.068 49.8872C211.583 49.7253 211.259 49.4016 210.936 49.0779C210.612 48.7541 210.451 48.2685 210.451 47.621C210.451 47.1354 210.612 46.6497 210.936 46.1641C211.259 45.6785 211.583 45.3548 212.23 45.1929C212.877 45.031 213.524 44.8691 214.332 44.8691C214.979 44.8691 215.465 44.8691 216.112 45.031C216.759 45.1929 217.244 45.3548 217.567 45.6785L217.082 46.8116C216.597 46.4879 216.273 46.326 215.788 46.1641C215.303 46.0023 214.818 46.0023 214.332 46.0023C213.524 46.0023 212.877 46.1641 212.553 46.4879C212.068 46.8116 211.906 47.1354 211.906 47.621C211.906 47.9447 212.068 48.2685 212.23 48.4304C212.392 48.5922 212.715 48.7541 213.039 48.916C213.362 49.0778 213.847 49.2397 214.494 49.2397C215.303 49.4016 215.788 49.5635 216.273 49.7253C216.759 49.8872 217.082 50.211 217.405 50.5347C217.729 50.8585 217.891 51.3441 217.891 51.9916C217.891 52.4772 217.729 52.9628 217.405 53.4484C217.082 53.9341 216.759 54.2578 216.112 54.4197C215.465 54.5815 214.818 54.7434 214.009 54.7434C213.2 54.9053 212.553 54.9053 211.745 54.5815Z" fill="#1D1D1B"/>
<path d="M229.534 53.6103V54.9053H222.256V44.8691H229.373V46.1641H223.712V49.2397H228.726V50.5347H223.712V53.7722H229.534V53.6103Z" fill="#1D1D1B"/>
<path d="M234.872 54.5815C234.225 54.4197 233.578 54.0959 233.254 53.6103L233.74 52.4772C234.063 52.8009 234.548 53.1247 235.195 53.2866C235.842 53.4484 236.489 53.6103 236.974 53.6103C237.783 53.6103 238.43 53.4484 238.915 53.1247C239.4 52.8009 239.562 52.4772 239.562 51.9916C239.562 51.6678 239.4 51.3441 239.239 51.1822C239.077 51.0203 238.754 50.8585 238.43 50.6966C238.107 50.5347 237.621 50.3728 236.974 50.3728C236.166 50.211 235.68 50.0491 235.195 49.8872C234.71 49.7253 234.387 49.4016 234.063 49.0779C233.74 48.7541 233.578 48.2685 233.578 47.621C233.578 47.1354 233.74 46.6497 234.063 46.1641C234.387 45.6785 234.71 45.3548 235.357 45.1929C236.004 45.031 236.651 44.8691 237.46 44.8691C238.107 44.8691 238.592 44.8691 239.239 45.031C239.886 45.1929 240.371 45.3548 240.694 45.6785L240.209 46.8116C239.724 46.4879 239.4 46.326 238.915 46.1641C238.43 46.0023 237.945 46.0023 237.46 46.0023C236.651 46.0023 236.004 46.1641 235.68 46.4879C235.195 46.8116 235.034 47.1354 235.034 47.621C235.034 47.9447 235.195 48.2685 235.357 48.4304C235.519 48.5922 235.842 48.7541 236.166 48.916C236.489 49.0778 236.974 49.2397 237.621 49.2397C238.43 49.4016 238.915 49.5635 239.4 49.7253C239.886 49.8872 240.209 50.211 240.533 50.5347C240.856 50.8585 241.018 51.3441 241.018 51.9916C241.018 52.4772 240.856 52.9628 240.533 53.4484C240.209 53.934 239.886 54.2578 239.239 54.4197C238.592 54.5815 237.783 54.9053 236.974 54.9053C236.166 54.9053 235.519 54.9053 234.872 54.5815Z" fill="#1D1D1B"/>
<path d="M143.651 62.8359L140.255 72.8721H138.799L136.05 64.7784L133.3 72.8721H131.845L128.448 62.8359H129.904L132.653 70.9296L135.403 62.8359H136.697L139.446 71.0915L142.196 62.8359H143.651Z" fill="#1D1D1B"/>
<path d="M148.666 72.2246C147.857 71.739 147.211 71.0915 146.725 70.444C146.24 69.6346 146.078 68.8252 146.078 67.854C146.078 66.8828 146.24 66.0734 146.725 65.264C147.211 64.4547 147.857 63.8072 148.666 63.4834C149.475 62.9978 150.445 62.8359 151.416 62.8359C152.386 62.8359 153.357 62.9978 154.165 63.4834C154.974 63.969 155.621 64.6165 156.106 65.264C156.591 66.0734 156.753 66.8828 156.753 67.854C156.753 68.8252 156.591 69.6346 156.106 70.444C155.621 71.2533 154.974 71.9008 154.165 72.2246C153.357 72.7102 152.386 72.8721 151.416 72.8721C150.445 72.8721 149.475 72.7102 148.666 72.2246ZM153.518 71.0915C154.165 70.7677 154.651 70.2821 154.974 69.6346C155.297 68.9871 155.459 68.3396 155.459 67.6921C155.459 67.0446 155.297 66.2353 154.974 65.7497C154.651 65.264 154.165 64.7784 153.518 64.2928C152.871 63.969 152.224 63.8072 151.577 63.8072C150.769 63.8072 150.122 63.969 149.637 64.2928C148.99 64.6165 148.504 65.1022 148.181 65.7497C147.857 66.3971 147.696 67.0446 147.696 67.6921C147.696 68.5015 147.857 69.149 148.181 69.6346C148.504 70.2821 148.99 70.6059 149.637 71.0915C150.284 71.4152 150.931 71.5771 151.577 71.5771C152.224 71.5771 152.871 71.4152 153.518 71.0915Z" fill="#1D1D1B"/>
<path d="M167.426 72.8721L165.323 69.7965C165 69.7965 164.838 69.7965 164.676 69.7965H162.25V72.8721H160.795V62.8359H164.676C165.97 62.8359 166.941 63.1597 167.749 63.8072C168.558 64.4547 168.882 65.264 168.882 66.3971C168.882 67.2065 168.72 67.854 168.235 68.3396C167.911 68.8252 167.264 69.3109 166.617 69.4727L169.043 72.8721H167.426ZM166.617 68.0159C167.103 67.6921 167.264 67.0446 167.264 66.3971C167.264 65.7497 167.103 65.1022 166.617 64.7784C166.132 64.4547 165.485 64.1309 164.515 64.1309H162.089V68.6634H164.515C165.485 68.5015 166.132 68.3396 166.617 68.0159Z" fill="#1D1D1B"/>
<path d="M172.766 62.8359H174.222V71.5771H179.721V72.8721H172.928V62.8359H172.766Z" fill="#1D1D1B"/>
<path d="M182.954 62.8359H187.159C188.291 62.8359 189.1 62.9978 189.909 63.4834C190.717 63.969 191.364 64.4547 191.85 65.264C192.335 66.0734 192.496 66.8828 192.496 67.854C192.496 68.8252 192.335 69.6346 191.85 70.444C191.364 71.2533 190.717 71.739 189.909 72.2246C189.1 72.7102 188.13 72.8721 187.159 72.8721H182.954V62.8359ZM187.159 71.5771C187.968 71.5771 188.615 71.4152 189.262 71.0915C189.909 70.7677 190.394 70.2821 190.717 69.7965C191.041 69.149 191.203 68.5015 191.203 67.854C191.203 67.0446 191.041 66.3971 190.717 65.9115C190.394 65.4259 189.909 64.9403 189.262 64.6165C188.615 64.2928 187.968 64.1309 187.159 64.1309H184.41V71.739H187.159V71.5771Z" fill="#1D1D1B"/>
<path d="M210.289 62.8359L206.892 72.8721H205.437L202.687 64.7784L199.938 72.8721H198.482L195.085 62.8359H196.541L199.291 70.9296L202.04 62.8359H203.334L206.084 71.0915L208.833 62.8359H210.289Z" fill="#1D1D1B"/>
<path d="M213.85 62.8359H215.305V72.8721H213.85V62.8359Z" fill="#1D1D1B"/>
<path d="M219.83 62.8359H224.035C225.167 62.8359 225.976 62.9978 226.785 63.4834C227.593 63.969 228.24 64.4547 228.725 65.264C229.211 66.0734 229.372 66.8828 229.372 67.854C229.372 68.8252 229.211 69.6346 228.725 70.444C228.24 71.2533 227.593 71.739 226.785 72.2246C225.976 72.7102 225.005 72.8721 224.035 72.8721H219.83V62.8359ZM224.035 71.5771C224.844 71.5771 225.491 71.4152 226.138 71.0915C226.785 70.7677 227.27 70.2821 227.593 69.7965C227.917 69.149 228.079 68.5015 228.079 67.854C228.079 67.0446 227.917 66.3971 227.593 65.9115C227.27 65.4259 226.785 64.9403 226.138 64.6165C225.491 64.2928 224.844 64.1309 224.035 64.1309H221.285V71.739H224.035V71.5771Z" fill="#1D1D1B"/>
<path d="M240.694 71.5771V72.8721H233.416V62.8359H240.532V64.1309H234.871V67.2065H239.885V68.5015H234.871V71.739H240.694V71.5771Z" fill="#1D1D1B"/>
<path d="M95.1326 80.8028H260.592L260.753 46" stroke="#E3323D" stroke-miterlimit="10"/>
<path d="M95.1326 1H260.592L260.753 36.4503" stroke="#194E4E" stroke-miterlimit="10"/>
<path d="M109.203 1.00391H1V80.8075H109.203V1.00391Z" fill="#E3323D"/>
<path d="M109.203 1.00391H1V80.8075H109.203V1.00391Z" stroke="#E3323D" stroke-miterlimit="10"/>
<path d="M34.6428 28.3564H24.2915V53.4468H34.6428V28.3564Z" fill="white"/>
<path d="M34.6428 27.0612H29.6289C26.7176 27.0612 24.2915 24.6331 24.2915 21.7194V18.1582H29.3054C32.2167 18.1582 34.6428 20.5863 34.6428 23.5V27.0612Z" fill="white"/>
<path d="M76.2075 28.6802L70.8701 41.9538L65.6944 28.3564L60.5188 41.4682L65.6944 53.9324L61.3275 63.6448H71.8405L85.9118 28.6802H76.2075Z" fill="white"/>
<path d="M54.3754 28.3564L49.038 41.7919L44.0241 28.3564H36.0989V34.8314L43.5389 53.4468H54.2137L64.2415 28.3564H54.3754Z" fill="white"/>
</svg>
