<svg width="20" height="20" viewBox="0 0 20 20" fill="none" xmlns="http://www.w3.org/2000/svg">
<path d="M4.47679 19.1497H0.330357V6.86515H4.47679V19.1497ZM2.40134 5.18943C1.07545 5.18943 0 4.17907 0 2.95924C9.49017e-09 2.37331 0.252998 1.81138 0.703336 1.39707C1.15367 0.982759 1.76446 0.75 2.40134 0.75C3.03821 0.75 3.649 0.982759 4.09934 1.39707C4.54968 1.81138 4.80268 2.37331 4.80268 2.95924C4.80268 4.17907 3.72679 5.18943 2.40134 5.18943ZM19.9955 19.1497H15.858V13.1696C15.858 11.7445 15.8268 9.91677 13.7022 9.91677C11.5464 9.91677 11.2161 11.4652 11.2161 13.067V19.1497H7.07411V6.86515H11.0509V8.54087H11.1089C11.6625 7.57569 13.0147 6.55711 15.0321 6.55711C19.2286 6.55711 20 9.09944 20 12.4016V19.1497H19.9955Z" fill="#B0B5B5"/>
</svg>
