<svg width="21" height="21" viewBox="0 0 21 21" fill="none" xmlns="http://www.w3.org/2000/svg">
<path fill-rule="evenodd" clip-rule="evenodd" d="M5 2C5 0.895431 5.89543 0 7 0H19C20.1046 0 21 0.895431 21 2V14C21 15.1046 20.1046 16 19 16H16H7C5.89543 16 5 15.1046 5 14V5V2ZM3.5 5H2C0.895431 5 0 5.89543 0 7V19C0 20.1046 0.895431 21 2 21H14C15.1046 21 16 20.1046 16 19V17.5H7C5.067 17.5 3.5 15.933 3.5 14V5ZM13.8571 7.14282H16.4286C16.7441 7.14282 17 7.39871 17 7.71424V8.28566C17 8.60119 16.7441 8.85708 16.4286 8.85708H13.8571V11.4285C13.8571 11.744 13.6013 11.9999 13.2857 11.9999H12.7143C12.3988 11.9999 12.1429 11.744 12.1429 11.4285V8.85708H9.57143C9.25589 8.85708 9 8.60119 9 8.28566V7.71424C9 7.39871 9.25589 7.14282 9.57143 7.14282H12.1429V4.57142C12.1429 4.25589 12.3988 4 12.7143 4H13.2857C13.6013 4 13.8571 4.25589 13.8571 4.57142V7.14282Z" fill="#7D918B"/>
</svg>
