<svg width="20" height="20" viewBox="0 0 20 20" fill="none" xmlns="http://www.w3.org/2000/svg">
<path d="M17.9442 6.54822C17.9569 6.72588 17.9569 6.90357 17.9569 7.08123C17.9569 12.5 13.8326 18.7437 6.29444 18.7437C3.97209 18.7437 1.81473 18.0711 0 16.9036C0.329962 16.9417 0.64719 16.9544 0.989848 16.9544C2.90607 16.9544 4.67006 16.3072 6.0787 15.2031C4.27666 15.165 2.7665 13.9848 2.24618 12.3604C2.50001 12.3985 2.7538 12.4239 3.02032 12.4239C3.38833 12.4239 3.75638 12.3731 4.099 12.2843C2.22083 11.9036 0.812152 10.2538 0.812152 8.26143V8.21069C1.35782 8.51526 1.99239 8.70561 2.66493 8.73096C1.56087 7.9949 0.837542 6.73857 0.837542 5.31724C0.837542 4.55583 1.04055 3.85786 1.3959 3.24871C3.41369 5.73603 6.44671 7.36037 9.84769 7.53807C9.78426 7.2335 9.74617 6.91627 9.74617 6.599C9.74617 4.34009 11.5736 2.5 13.8452 2.5C15.0254 2.5 16.0914 2.99492 16.8401 3.79442C17.7665 3.61676 18.6548 3.2741 19.4416 2.80457C19.137 3.75637 18.4898 4.55587 17.6396 5.06345C18.4645 4.97466 19.264 4.74618 20 4.42895C19.4417 5.2411 18.7437 5.96443 17.9442 6.54822V6.54822Z" fill="#B0B5B5"/>
</svg>
