<svg width="618" height="465" viewBox="0 0 618 465" fill="none" xmlns="http://www.w3.org/2000/svg">
<rect width="501" height="380" fill="white"/>
<rect x="362" y="112" width="256" height="353" fill="white"/>
<path d="M46.006 71L43.85 67.192H42.926V71H40.966V61.228H44.634C45.39 61.228 46.034 61.3633 46.566 61.634C47.098 61.8953 47.4947 62.2547 47.756 62.712C48.0267 63.16 48.162 63.664 48.162 64.224C48.162 64.868 47.9753 65.4513 47.602 65.974C47.2287 66.4873 46.6733 66.842 45.936 67.038L48.274 71H46.006ZM42.926 65.722H44.564C45.096 65.722 45.4927 65.596 45.754 65.344C46.0153 65.0827 46.146 64.7233 46.146 64.266C46.146 63.818 46.0153 63.4727 45.754 63.23C45.4927 62.978 45.096 62.852 44.564 62.852H42.926V65.722ZM57.1448 66.954C57.1448 67.234 57.1261 67.486 57.0888 67.71H51.4188C51.4654 68.27 51.6614 68.7087 52.0068 69.026C52.3521 69.3433 52.7768 69.502 53.2808 69.502C54.0088 69.502 54.5268 69.1893 54.8348 68.564H56.9488C56.7248 69.3107 56.2954 69.9267 55.6608 70.412C55.0261 70.888 54.2468 71.126 53.3228 71.126C52.5761 71.126 51.9041 70.9627 51.3068 70.636C50.7188 70.3 50.2568 69.8287 49.9208 69.222C49.5941 68.6153 49.4307 67.9153 49.4307 67.122C49.4307 66.3193 49.5941 65.6147 49.9208 65.008C50.2474 64.4013 50.7048 63.9347 51.2928 63.608C51.8808 63.2813 52.5574 63.118 53.3228 63.118C54.0601 63.118 54.7181 63.2767 55.2968 63.594C55.8848 63.9113 56.3374 64.364 56.6548 64.952C56.9814 65.5307 57.1448 66.198 57.1448 66.954ZM55.1148 66.394C55.1054 65.89 54.9234 65.4887 54.5688 65.19C54.2141 64.882 53.7801 64.728 53.2668 64.728C52.7814 64.728 52.3708 64.8773 52.0348 65.176C51.7081 65.4653 51.5074 65.8713 51.4328 66.394H55.1148ZM58.0714 67.108C58.0714 66.3333 58.23 65.6473 58.5474 65.05C58.874 64.4433 59.3127 63.972 59.8634 63.636C60.414 63.3 61.0207 63.132 61.6834 63.132C62.234 63.132 62.7194 63.2393 63.1394 63.454C63.5687 63.6593 63.914 63.9253 64.1754 64.252V63.244H66.1494V74.696H64.1754V69.936C63.914 70.272 63.564 70.552 63.1254 70.776C62.6867 71 62.192 71.112 61.6414 71.112C60.988 71.112 60.386 70.944 59.8354 70.608C59.294 70.2627 58.8647 69.7867 58.5474 69.18C58.23 68.5733 58.0714 67.8827 58.0714 67.108ZM64.1754 67.122C64.1754 66.646 64.0774 66.2353 63.8814 65.89C63.6854 65.5447 63.4287 65.2833 63.1114 65.106C62.8034 64.9287 62.472 64.84 62.1174 64.84C61.772 64.84 61.4407 64.9287 61.1234 65.106C60.8154 65.2833 60.5634 65.5447 60.3674 65.89C60.1714 66.226 60.0734 66.632 60.0734 67.108C60.0734 67.584 60.1714 67.9993 60.3674 68.354C60.5634 68.6993 60.8154 68.9607 61.1234 69.138C61.4407 69.3153 61.772 69.404 62.1174 69.404C62.472 69.404 62.8034 69.3153 63.1114 69.138C63.4287 68.9607 63.6854 68.6993 63.8814 68.354C64.0774 68.0087 64.1754 67.598 64.1754 67.122ZM75.3857 63.244V71H73.4117V70.02C73.1597 70.356 72.8283 70.622 72.4177 70.818C72.0163 71.0047 71.5777 71.098 71.1017 71.098C70.495 71.098 69.9583 70.972 69.4917 70.72C69.025 70.4587 68.6563 70.0807 68.3857 69.586C68.1243 69.082 67.9937 68.4847 67.9937 67.794V63.244H69.9537V67.514C69.9537 68.13 70.1077 68.606 70.4157 68.942C70.7237 69.2687 71.1437 69.432 71.6757 69.432C72.217 69.432 72.6417 69.2687 72.9497 68.942C73.2577 68.606 73.4117 68.13 73.4117 67.514V63.244H75.3857ZM84.5295 66.954C84.5295 67.234 84.5108 67.486 84.4735 67.71H78.8035C78.8502 68.27 79.0462 68.7087 79.3915 69.026C79.7368 69.3433 80.1615 69.502 80.6655 69.502C81.3935 69.502 81.9115 69.1893 82.2195 68.564H84.3335C84.1095 69.3107 83.6802 69.9267 83.0455 70.412C82.4108 70.888 81.6315 71.126 80.7075 71.126C79.9608 71.126 79.2888 70.9627 78.6915 70.636C78.1035 70.3 77.6415 69.8287 77.3055 69.222C76.9788 68.6153 76.8155 67.9153 76.8155 67.122C76.8155 66.3193 76.9788 65.6147 77.3055 65.008C77.6322 64.4013 78.0895 63.9347 78.6775 63.608C79.2655 63.2813 79.9422 63.118 80.7075 63.118C81.4448 63.118 82.1028 63.2767 82.6815 63.594C83.2695 63.9113 83.7222 64.364 84.0395 64.952C84.3662 65.5307 84.5295 66.198 84.5295 66.954ZM82.4995 66.394C82.4902 65.89 82.3082 65.4887 81.9535 65.19C81.5988 64.882 81.1648 64.728 80.6515 64.728C80.1662 64.728 79.7555 64.8773 79.4195 65.176C79.0928 65.4653 78.8922 65.8713 78.8175 66.394H82.4995ZM88.9281 71.126C88.2935 71.126 87.7241 71.014 87.2201 70.79C86.7161 70.5567 86.3148 70.244 86.0161 69.852C85.7268 69.46 85.5681 69.026 85.5401 68.55H87.5141C87.5515 68.8487 87.6961 69.096 87.9481 69.292C88.2095 69.488 88.5315 69.586 88.9141 69.586C89.2875 69.586 89.5768 69.5113 89.7821 69.362C89.9968 69.2127 90.1041 69.0213 90.1041 68.788C90.1041 68.536 89.9735 68.3493 89.7121 68.228C89.4601 68.0973 89.0541 67.9573 88.4941 67.808C87.9155 67.668 87.4395 67.5233 87.0661 67.374C86.7021 67.2247 86.3848 66.996 86.1141 66.688C85.8528 66.38 85.7221 65.9647 85.7221 65.442C85.7221 65.0127 85.8435 64.6207 86.0861 64.266C86.3381 63.9113 86.6928 63.6313 87.1501 63.426C87.6168 63.2207 88.1628 63.118 88.7881 63.118C89.7121 63.118 90.4495 63.3513 91.0001 63.818C91.5508 64.2753 91.8541 64.896 91.9101 65.68H90.0341C90.0061 65.372 89.8755 65.1293 89.6421 64.952C89.4181 64.7653 89.1148 64.672 88.7321 64.672C88.3775 64.672 88.1021 64.7373 87.9061 64.868C87.7195 64.9987 87.6261 65.1807 87.6261 65.414C87.6261 65.6753 87.7568 65.876 88.0181 66.016C88.2795 66.1467 88.6855 66.282 89.2361 66.422C89.7961 66.562 90.2581 66.7067 90.6221 66.856C90.9861 67.0053 91.2988 67.2387 91.5601 67.556C91.8308 67.864 91.9708 68.2747 91.9801 68.788C91.9801 69.236 91.8541 69.6373 91.6021 69.992C91.3595 70.3467 91.0048 70.6267 90.5381 70.832C90.0808 71.028 89.5441 71.126 88.9281 71.126ZM95.871 64.854V68.606C95.871 68.8673 95.9317 69.0587 96.053 69.18C96.1837 69.292 96.3984 69.348 96.697 69.348H97.607V71H96.375C94.723 71 93.897 70.1973 93.897 68.592V64.854H92.973V63.244H93.897V61.326H95.871V63.244H97.607V64.854H95.871ZM113.007 61.228V71H111.047V64.644L108.429 71H106.945L104.313 64.644V71H102.353V61.228H104.579L107.687 68.494L110.795 61.228H113.007ZM118.389 71.126C117.642 71.126 116.97 70.9627 116.373 70.636C115.775 70.3 115.304 69.8287 114.959 69.222C114.623 68.6153 114.455 67.9153 114.455 67.122C114.455 66.3287 114.627 65.6287 114.973 65.022C115.327 64.4153 115.808 63.9487 116.415 63.622C117.021 63.286 117.698 63.118 118.445 63.118C119.191 63.118 119.868 63.286 120.475 63.622C121.081 63.9487 121.557 64.4153 121.903 65.022C122.257 65.6287 122.435 66.3287 122.435 67.122C122.435 67.9153 122.253 68.6153 121.889 69.222C121.534 69.8287 121.049 70.3 120.433 70.636C119.826 70.9627 119.145 71.126 118.389 71.126ZM118.389 69.418C118.743 69.418 119.075 69.334 119.383 69.166C119.7 68.9887 119.952 68.7273 120.139 68.382C120.325 68.0367 120.419 67.6167 120.419 67.122C120.419 66.3847 120.223 65.82 119.831 65.428C119.448 65.0267 118.977 64.826 118.417 64.826C117.857 64.826 117.385 65.0267 117.003 65.428C116.629 65.82 116.443 66.3847 116.443 67.122C116.443 67.8593 116.625 68.4287 116.989 68.83C117.362 69.222 117.829 69.418 118.389 69.418ZM123.368 67.094C123.368 66.31 123.522 65.6147 123.83 65.008C124.148 64.4013 124.577 63.9347 125.118 63.608C125.66 63.2813 126.262 63.118 126.924 63.118C127.428 63.118 127.909 63.23 128.366 63.454C128.824 63.6687 129.188 63.958 129.458 64.322V60.64H131.446V71H129.458V69.852C129.216 70.2347 128.875 70.5427 128.436 70.776C127.998 71.0093 127.489 71.126 126.91 71.126C126.257 71.126 125.66 70.958 125.118 70.622C124.577 70.286 124.148 69.8147 123.83 69.208C123.522 68.592 123.368 67.8873 123.368 67.094ZM129.472 67.122C129.472 66.646 129.379 66.24 129.192 65.904C129.006 65.5587 128.754 65.2973 128.436 65.12C128.119 64.9333 127.778 64.84 127.414 64.84C127.05 64.84 126.714 64.9287 126.406 65.106C126.098 65.2833 125.846 65.5447 125.65 65.89C125.464 66.226 125.37 66.6273 125.37 67.094C125.37 67.5607 125.464 67.9713 125.65 68.326C125.846 68.6713 126.098 68.9373 126.406 69.124C126.724 69.3107 127.06 69.404 127.414 69.404C127.778 69.404 128.119 69.3153 128.436 69.138C128.754 68.9513 129.006 68.69 129.192 68.354C129.379 68.0087 129.472 67.598 129.472 67.122ZM140.683 63.244V71H138.709V70.02C138.457 70.356 138.125 70.622 137.715 70.818C137.313 71.0047 136.875 71.098 136.399 71.098C135.792 71.098 135.255 70.972 134.789 70.72C134.322 70.4587 133.953 70.0807 133.683 69.586C133.421 69.082 133.291 68.4847 133.291 67.794V63.244H135.251V67.514C135.251 68.13 135.405 68.606 135.713 68.942C136.021 69.2687 136.441 69.432 136.973 69.432C137.514 69.432 137.939 69.2687 138.247 68.942C138.555 68.606 138.709 68.13 138.709 67.514V63.244H140.683ZM144.576 60.64V71H142.616V60.64H144.576ZM153.723 66.954C153.723 67.234 153.704 67.486 153.667 67.71H147.997C148.044 68.27 148.24 68.7087 148.585 69.026C148.93 69.3433 149.355 69.502 149.859 69.502C150.587 69.502 151.105 69.1893 151.413 68.564H153.527C153.303 69.3107 152.874 69.9267 152.239 70.412C151.604 70.888 150.825 71.126 149.901 71.126C149.154 71.126 148.482 70.9627 147.885 70.636C147.297 70.3 146.835 69.8287 146.499 69.222C146.172 68.6153 146.009 67.9153 146.009 67.122C146.009 66.3193 146.172 65.6147 146.499 65.008C146.826 64.4013 147.283 63.9347 147.871 63.608C148.459 63.2813 149.136 63.118 149.901 63.118C150.638 63.118 151.296 63.2767 151.875 63.594C152.463 63.9113 152.916 64.364 153.233 64.952C153.56 65.5307 153.723 66.198 153.723 66.954ZM151.693 66.394C151.684 65.89 151.502 65.4887 151.147 65.19C150.792 64.882 150.358 64.728 149.845 64.728C149.36 64.728 148.949 64.8773 148.613 65.176C148.286 65.4653 148.086 65.8713 148.011 66.394H151.693ZM161.863 71.098C161.182 71.098 160.566 70.9813 160.015 70.748C159.474 70.5147 159.045 70.1787 158.727 69.74C158.41 69.3013 158.247 68.7833 158.237 68.186H160.337C160.365 68.5873 160.505 68.9047 160.757 69.138C161.019 69.3713 161.373 69.488 161.821 69.488C162.279 69.488 162.638 69.3807 162.899 69.166C163.161 68.942 163.291 68.6527 163.291 68.298C163.291 68.0087 163.203 67.7707 163.025 67.584C162.848 67.3973 162.624 67.2527 162.353 67.15C162.092 67.038 161.728 66.9167 161.261 66.786C160.627 66.5993 160.109 66.4173 159.707 66.24C159.315 66.0533 158.975 65.778 158.685 65.414C158.405 65.0407 158.265 64.546 158.265 63.93C158.265 63.3513 158.41 62.8473 158.699 62.418C158.989 61.9887 159.395 61.662 159.917 61.438C160.44 61.2047 161.037 61.088 161.709 61.088C162.717 61.088 163.534 61.3353 164.159 61.83C164.794 62.3153 165.144 62.9967 165.209 63.874H163.053C163.035 63.538 162.89 63.2627 162.619 63.048C162.358 62.824 162.008 62.712 161.569 62.712C161.187 62.712 160.879 62.81 160.645 63.006C160.421 63.202 160.309 63.4867 160.309 63.86C160.309 64.1213 160.393 64.3407 160.561 64.518C160.739 64.686 160.953 64.826 161.205 64.938C161.467 65.0407 161.831 65.162 162.297 65.302C162.932 65.4887 163.45 65.6753 163.851 65.862C164.253 66.0487 164.598 66.3287 164.887 66.702C165.177 67.0753 165.321 67.5653 165.321 68.172C165.321 68.6947 165.186 69.18 164.915 69.628C164.645 70.076 164.248 70.4353 163.725 70.706C163.203 70.9673 162.582 71.098 161.863 71.098ZM166.517 67.122C166.517 66.3193 166.68 65.6193 167.007 65.022C167.333 64.4153 167.786 63.9487 168.365 63.622C168.943 63.286 169.606 63.118 170.353 63.118C171.314 63.118 172.107 63.3607 172.733 63.846C173.367 64.322 173.792 64.994 174.007 65.862H171.893C171.781 65.526 171.589 65.2647 171.319 65.078C171.057 64.882 170.731 64.784 170.339 64.784C169.779 64.784 169.335 64.9893 169.009 65.4C168.682 65.8013 168.519 66.3753 168.519 67.122C168.519 67.8593 168.682 68.4333 169.009 68.844C169.335 69.2453 169.779 69.446 170.339 69.446C171.132 69.446 171.65 69.0913 171.893 68.382H174.007C173.792 69.222 173.367 69.8893 172.733 70.384C172.098 70.8787 171.305 71.126 170.353 71.126C169.606 71.126 168.943 70.9627 168.365 70.636C167.786 70.3 167.333 69.8333 167.007 69.236C166.68 68.6293 166.517 67.9247 166.517 67.122ZM177.403 64.448C177.655 64.0373 177.981 63.7153 178.383 63.482C178.793 63.2487 179.26 63.132 179.783 63.132V65.19H179.265C178.649 65.19 178.182 65.3347 177.865 65.624C177.557 65.9133 177.403 66.4173 177.403 67.136V71H175.443V63.244H177.403V64.448ZM188.313 66.954C188.313 67.234 188.294 67.486 188.257 67.71H182.587C182.633 68.27 182.829 68.7087 183.175 69.026C183.52 69.3433 183.945 69.502 184.449 69.502C185.177 69.502 185.695 69.1893 186.003 68.564H188.117C187.893 69.3107 187.463 69.9267 186.829 70.412C186.194 70.888 185.415 71.126 184.491 71.126C183.744 71.126 183.072 70.9627 182.475 70.636C181.887 70.3 181.425 69.8287 181.089 69.222C180.762 68.6153 180.599 67.9153 180.599 67.122C180.599 66.3193 180.762 65.6147 181.089 65.008C181.415 64.4013 181.873 63.9347 182.461 63.608C183.049 63.2813 183.725 63.118 184.491 63.118C185.228 63.118 185.886 63.2767 186.465 63.594C187.053 63.9113 187.505 64.364 187.823 64.952C188.149 65.5307 188.313 66.198 188.313 66.954ZM186.283 66.394C186.273 65.89 186.091 65.4887 185.737 65.19C185.382 64.882 184.948 64.728 184.435 64.728C183.949 64.728 183.539 64.8773 183.203 65.176C182.876 65.4653 182.675 65.8713 182.601 66.394H186.283ZM196.953 66.954C196.953 67.234 196.935 67.486 196.897 67.71H191.227C191.274 68.27 191.47 68.7087 191.815 69.026C192.161 69.3433 192.585 69.502 193.089 69.502C193.817 69.502 194.335 69.1893 194.643 68.564H196.757C196.533 69.3107 196.104 69.9267 195.469 70.412C194.835 70.888 194.055 71.126 193.131 71.126C192.385 71.126 191.713 70.9627 191.115 70.636C190.527 70.3 190.065 69.8287 189.729 69.222C189.403 68.6153 189.239 67.9153 189.239 67.122C189.239 66.3193 189.403 65.6147 189.729 65.008C190.056 64.4013 190.513 63.9347 191.101 63.608C191.689 63.2813 192.366 63.118 193.131 63.118C193.869 63.118 194.527 63.2767 195.105 63.594C195.693 63.9113 196.146 64.364 196.463 64.952C196.79 65.5307 196.953 66.198 196.953 66.954ZM194.923 66.394C194.914 65.89 194.732 65.4887 194.377 65.19C194.023 64.882 193.589 64.728 193.075 64.728C192.59 64.728 192.179 64.8773 191.843 65.176C191.517 65.4653 191.316 65.8713 191.241 66.394H194.923ZM202.682 63.132C203.606 63.132 204.353 63.426 204.922 64.014C205.491 64.5927 205.776 65.4047 205.776 66.45V71H203.816V66.716C203.816 66.1 203.662 65.6287 203.354 65.302C203.046 64.966 202.626 64.798 202.094 64.798C201.553 64.798 201.123 64.966 200.806 65.302C200.498 65.6287 200.344 66.1 200.344 66.716V71H198.384V63.244H200.344V64.21C200.605 63.874 200.937 63.6127 201.338 63.426C201.749 63.23 202.197 63.132 202.682 63.132ZM210.608 71.126C209.973 71.126 209.404 71.014 208.9 70.79C208.396 70.5567 207.994 70.244 207.696 69.852C207.406 69.46 207.248 69.026 207.22 68.55H209.194C209.231 68.8487 209.376 69.096 209.628 69.292C209.889 69.488 210.211 69.586 210.594 69.586C210.967 69.586 211.256 69.5113 211.462 69.362C211.676 69.2127 211.784 69.0213 211.784 68.788C211.784 68.536 211.653 68.3493 211.392 68.228C211.14 68.0973 210.734 67.9573 210.174 67.808C209.595 67.668 209.119 67.5233 208.746 67.374C208.382 67.2247 208.064 66.996 207.794 66.688C207.532 66.38 207.402 65.9647 207.402 65.442C207.402 65.0127 207.523 64.6207 207.766 64.266C208.018 63.9113 208.372 63.6313 208.83 63.426C209.296 63.2207 209.842 63.118 210.468 63.118C211.392 63.118 212.129 63.3513 212.68 63.818C213.23 64.2753 213.534 64.896 213.59 65.68H211.714C211.686 65.372 211.555 65.1293 211.322 64.952C211.098 64.7653 210.794 64.672 210.412 64.672C210.057 64.672 209.782 64.7373 209.586 64.868C209.399 64.9987 209.306 65.1807 209.306 65.414C209.306 65.6753 209.436 65.876 209.698 66.016C209.959 66.1467 210.365 66.282 210.916 66.422C211.476 66.562 211.938 66.7067 212.302 66.856C212.666 67.0053 212.978 67.2387 213.24 67.556C213.51 67.864 213.65 68.2747 213.66 68.788C213.66 69.236 213.534 69.6373 213.282 69.992C213.039 70.3467 212.684 70.6267 212.218 70.832C211.76 71.028 211.224 71.126 210.608 71.126ZM219.637 63.132C220.225 63.132 220.747 63.2627 221.205 63.524C221.662 63.776 222.017 64.154 222.269 64.658C222.53 65.1527 222.661 65.75 222.661 66.45V71H220.701V66.716C220.701 66.1 220.547 65.6287 220.239 65.302C219.931 64.966 219.511 64.798 218.979 64.798C218.437 64.798 218.008 64.966 217.691 65.302C217.383 65.6287 217.229 66.1 217.229 66.716V71H215.269V60.64H217.229V64.21C217.481 63.874 217.817 63.6127 218.237 63.426C218.657 63.23 219.123 63.132 219.637 63.132ZM227.969 71.126C227.222 71.126 226.55 70.9627 225.953 70.636C225.355 70.3 224.884 69.8287 224.539 69.222C224.203 68.6153 224.035 67.9153 224.035 67.122C224.035 66.3287 224.207 65.6287 224.553 65.022C224.907 64.4153 225.388 63.9487 225.995 63.622C226.601 63.286 227.278 63.118 228.025 63.118C228.771 63.118 229.448 63.286 230.055 63.622C230.661 63.9487 231.137 64.4153 231.483 65.022C231.837 65.6287 232.015 66.3287 232.015 67.122C232.015 67.9153 231.833 68.6153 231.469 69.222C231.114 69.8287 230.629 70.3 230.013 70.636C229.406 70.9627 228.725 71.126 227.969 71.126ZM227.969 69.418C228.323 69.418 228.655 69.334 228.963 69.166C229.28 68.9887 229.532 68.7273 229.719 68.382C229.905 68.0367 229.999 67.6167 229.999 67.122C229.999 66.3847 229.803 65.82 229.411 65.428C229.028 65.0267 228.557 64.826 227.997 64.826C227.437 64.826 226.965 65.0267 226.583 65.428C226.209 65.82 226.023 66.3847 226.023 67.122C226.023 67.8593 226.205 68.4287 226.569 68.83C226.942 69.222 227.409 69.418 227.969 69.418ZM235.734 64.854V68.606C235.734 68.8673 235.795 69.0587 235.916 69.18C236.047 69.292 236.262 69.348 236.56 69.348H237.47V71H236.238C234.586 71 233.76 70.1973 233.76 68.592V64.854H232.836V63.244H233.76V61.326H235.734V63.244H237.47V64.854H235.734ZM44.354 109.758C43.4487 108.881 42.744 107.761 42.24 106.398C41.7453 105.035 41.498 103.575 41.498 102.016C41.498 100.42 41.7593 98.922 42.282 97.522C42.8047 96.1127 43.5653 94.96 44.564 94.064H46.538V94.246C45.5113 95.226 44.7273 96.402 44.186 97.774C43.654 99.146 43.388 100.56 43.388 102.016C43.388 103.435 43.64 104.807 44.144 106.132C44.6573 107.448 45.3853 108.591 46.328 109.562V109.758H44.354ZM54.9709 102.954C54.9709 103.234 54.9523 103.486 54.9149 103.71H49.2449C49.2916 104.27 49.4876 104.709 49.8329 105.026C50.1783 105.343 50.6029 105.502 51.1069 105.502C51.8349 105.502 52.3529 105.189 52.6609 104.564H54.7749C54.5509 105.311 54.1216 105.927 53.4869 106.412C52.8523 106.888 52.0729 107.126 51.1489 107.126C50.4023 107.126 49.7303 106.963 49.1329 106.636C48.5449 106.3 48.0829 105.829 47.7469 105.222C47.4203 104.615 47.2569 103.915 47.2569 103.122C47.2569 102.319 47.4203 101.615 47.7469 101.008C48.0736 100.401 48.5309 99.9347 49.1189 99.608C49.7069 99.2813 50.3836 99.118 51.1489 99.118C51.8863 99.118 52.5443 99.2767 53.1229 99.594C53.7109 99.9113 54.1636 100.364 54.4809 100.952C54.8076 101.531 54.9709 102.198 54.9709 102.954ZM52.9409 102.394C52.9316 101.89 52.7496 101.489 52.3949 101.19C52.0403 100.882 51.6063 100.728 51.0929 100.728C50.6076 100.728 50.1969 100.877 49.8609 101.176C49.5343 101.465 49.3336 101.871 49.2589 102.394H52.9409ZM66.0335 99.132C66.9855 99.132 67.7509 99.426 68.3295 100.014C68.9175 100.593 69.2115 101.405 69.2115 102.45V107H67.2515V102.716C67.2515 102.109 67.0975 101.647 66.7895 101.33C66.4815 101.003 66.0615 100.84 65.5295 100.84C64.9975 100.84 64.5729 101.003 64.2555 101.33C63.9475 101.647 63.7935 102.109 63.7935 102.716V107H61.8335V102.716C61.8335 102.109 61.6795 101.647 61.3715 101.33C61.0635 101.003 60.6435 100.84 60.1115 100.84C59.5702 100.84 59.1409 101.003 58.8235 101.33C58.5155 101.647 58.3615 102.109 58.3615 102.716V107H56.4015V99.244H58.3615V100.182C58.6135 99.8553 58.9355 99.5987 59.3275 99.412C59.7289 99.2253 60.1675 99.132 60.6435 99.132C61.2502 99.132 61.7915 99.2627 62.2675 99.524C62.7435 99.776 63.1122 100.14 63.3735 100.616C63.6255 100.168 63.9895 99.8087 64.4655 99.538C64.9509 99.2673 65.4735 99.132 66.0335 99.132ZM73.0315 100.364C73.2835 100.009 73.6288 99.7153 74.0675 99.482C74.5155 99.2393 75.0241 99.118 75.5935 99.118C76.2561 99.118 76.8535 99.2813 77.3855 99.608C77.9268 99.9347 78.3515 100.401 78.6595 101.008C78.9768 101.605 79.1355 102.301 79.1355 103.094C79.1355 103.887 78.9768 104.592 78.6595 105.208C78.3515 105.815 77.9268 106.286 77.3855 106.622C76.8535 106.958 76.2561 107.126 75.5935 107.126C75.0241 107.126 74.5201 107.009 74.0815 106.776C73.6521 106.543 73.3021 106.249 73.0315 105.894V110.696H71.0715V99.244H73.0315V100.364ZM77.1335 103.094C77.1335 102.627 77.0355 102.226 76.8395 101.89C76.6528 101.545 76.4008 101.283 76.0835 101.106C75.7755 100.929 75.4395 100.84 75.0755 100.84C74.7208 100.84 74.3848 100.933 74.0675 101.12C73.7595 101.297 73.5075 101.559 73.3115 101.904C73.1248 102.249 73.0315 102.655 73.0315 103.122C73.0315 103.589 73.1248 103.995 73.3115 104.34C73.5075 104.685 73.7595 104.951 74.0675 105.138C74.3848 105.315 74.7208 105.404 75.0755 105.404C75.4395 105.404 75.7755 105.311 76.0835 105.124C76.4008 104.937 76.6528 104.671 76.8395 104.326C77.0355 103.981 77.1335 103.57 77.1335 103.094ZM82.5198 96.64V107H80.5598V96.64H82.5198ZM87.9002 107.126C87.1536 107.126 86.4816 106.963 85.8842 106.636C85.2869 106.3 84.8156 105.829 84.4702 105.222C84.1342 104.615 83.9662 103.915 83.9662 103.122C83.9662 102.329 84.1389 101.629 84.4842 101.022C84.8389 100.415 85.3196 99.9487 85.9262 99.622C86.5329 99.286 87.2096 99.118 87.9562 99.118C88.7029 99.118 89.3796 99.286 89.9862 99.622C90.5929 99.9487 91.0689 100.415 91.4142 101.022C91.7689 101.629 91.9462 102.329 91.9462 103.122C91.9462 103.915 91.7642 104.615 91.4002 105.222C91.0456 105.829 90.5602 106.3 89.9442 106.636C89.3376 106.963 88.6562 107.126 87.9002 107.126ZM87.9002 105.418C88.2549 105.418 88.5862 105.334 88.8942 105.166C89.2116 104.989 89.4636 104.727 89.6502 104.382C89.8369 104.037 89.9302 103.617 89.9302 103.122C89.9302 102.385 89.7342 101.82 89.3422 101.428C88.9596 101.027 88.4882 100.826 87.9282 100.826C87.3682 100.826 86.8969 101.027 86.5142 101.428C86.1409 101.82 85.9542 102.385 85.9542 103.122C85.9542 103.859 86.1362 104.429 86.5002 104.83C86.8736 105.222 87.3402 105.418 87.9002 105.418ZM100.804 99.244L96.002 110.668H93.916L95.596 106.804L92.488 99.244H94.686L96.688 104.662L98.718 99.244H100.804ZM109.071 102.954C109.071 103.234 109.052 103.486 109.015 103.71H103.345C103.391 104.27 103.587 104.709 103.933 105.026C104.278 105.343 104.703 105.502 105.207 105.502C105.935 105.502 106.453 105.189 106.761 104.564H108.875C108.651 105.311 108.221 105.927 107.587 106.412C106.952 106.888 106.173 107.126 105.249 107.126C104.502 107.126 103.83 106.963 103.233 106.636C102.645 106.3 102.183 105.829 101.847 105.222C101.52 104.615 101.357 103.915 101.357 103.122C101.357 102.319 101.52 101.615 101.847 101.008C102.173 100.401 102.631 99.9347 103.219 99.608C103.807 99.2813 104.483 99.118 105.249 99.118C105.986 99.118 106.644 99.2767 107.223 99.594C107.811 99.9113 108.263 100.364 108.581 100.952C108.907 101.531 109.071 102.198 109.071 102.954ZM107.041 102.394C107.031 101.89 106.849 101.489 106.495 101.19C106.14 100.882 105.706 100.728 105.193 100.728C104.707 100.728 104.297 100.877 103.961 101.176C103.634 101.465 103.433 101.871 103.359 102.394H107.041ZM117.711 102.954C117.711 103.234 117.692 103.486 117.655 103.71H111.985C112.032 104.27 112.228 104.709 112.573 105.026C112.918 105.343 113.343 105.502 113.847 105.502C114.575 105.502 115.093 105.189 115.401 104.564H117.515C117.291 105.311 116.862 105.927 116.227 106.412C115.592 106.888 114.813 107.126 113.889 107.126C113.142 107.126 112.47 106.963 111.873 106.636C111.285 106.3 110.823 105.829 110.487 105.222C110.16 104.615 109.997 103.915 109.997 103.122C109.997 102.319 110.16 101.615 110.487 101.008C110.814 100.401 111.271 99.9347 111.859 99.608C112.447 99.2813 113.124 99.118 113.889 99.118C114.626 99.118 115.284 99.2767 115.863 99.594C116.451 99.9113 116.904 100.364 117.221 100.952C117.548 101.531 117.711 102.198 117.711 102.954ZM115.681 102.394C115.672 101.89 115.49 101.489 115.135 101.19C114.78 100.882 114.346 100.728 113.833 100.728C113.348 100.728 112.937 100.877 112.601 101.176C112.274 101.465 112.074 101.871 111.999 102.394H115.681ZM125.106 101.176V102.828H119.17V101.176H125.106ZM138.056 99.244L135.788 107H133.674L132.26 101.582L130.846 107H128.718L126.436 99.244H128.424L129.796 105.152L131.28 99.244H133.352L134.808 105.138L136.18 99.244H138.056ZM146.326 102.954C146.326 103.234 146.308 103.486 146.27 103.71H140.6C140.647 104.27 140.843 104.709 141.188 105.026C141.534 105.343 141.958 105.502 142.462 105.502C143.19 105.502 143.708 105.189 144.016 104.564H146.13C145.906 105.311 145.477 105.927 144.842 106.412C144.208 106.888 143.428 107.126 142.504 107.126C141.758 107.126 141.086 106.963 140.488 106.636C139.9 106.3 139.438 105.829 139.102 105.222C138.776 104.615 138.612 103.915 138.612 103.122C138.612 102.319 138.776 101.615 139.102 101.008C139.429 100.401 139.886 99.9347 140.474 99.608C141.062 99.2813 141.739 99.118 142.504 99.118C143.242 99.118 143.9 99.2767 144.478 99.594C145.066 99.9113 145.519 100.364 145.836 100.952C146.163 101.531 146.326 102.198 146.326 102.954ZM144.296 102.394C144.287 101.89 144.105 101.489 143.75 101.19C143.396 100.882 142.962 100.728 142.448 100.728C141.963 100.728 141.552 100.877 141.216 101.176C140.89 101.465 140.689 101.871 140.614 102.394H144.296ZM149.717 100.378C149.969 100.005 150.314 99.7013 150.753 99.468C151.201 99.2347 151.71 99.118 152.279 99.118C152.942 99.118 153.539 99.2813 154.071 99.608C154.612 99.9347 155.037 100.401 155.345 101.008C155.662 101.605 155.821 102.301 155.821 103.094C155.821 103.887 155.662 104.592 155.345 105.208C155.037 105.815 154.612 106.286 154.071 106.622C153.539 106.958 152.942 107.126 152.279 107.126C151.7 107.126 151.192 107.014 150.753 106.79C150.324 106.557 149.978 106.258 149.717 105.894V107H147.757V96.64H149.717V100.378ZM153.819 103.094C153.819 102.627 153.721 102.226 153.525 101.89C153.338 101.545 153.086 101.283 152.769 101.106C152.461 100.929 152.125 100.84 151.761 100.84C151.406 100.84 151.07 100.933 150.753 101.12C150.445 101.297 150.193 101.559 149.997 101.904C149.81 102.249 149.717 102.655 149.717 103.122C149.717 103.589 149.81 103.995 149.997 104.34C150.193 104.685 150.445 104.951 150.753 105.138C151.07 105.315 151.406 105.404 151.761 105.404C152.125 105.404 152.461 105.311 152.769 105.124C153.086 104.937 153.338 104.671 153.525 104.326C153.721 103.981 153.819 103.57 153.819 103.094ZM156.741 109.758V109.562C157.684 108.591 158.407 107.448 158.911 106.132C159.425 104.807 159.681 103.435 159.681 102.016C159.681 100.56 159.411 99.146 158.869 97.774C158.337 96.402 157.558 95.226 156.531 94.246V94.064H158.505C159.504 94.96 160.265 96.1127 160.787 97.522C161.31 98.922 161.571 100.42 161.571 102.016C161.571 103.575 161.319 105.035 160.815 106.398C160.321 107.761 159.621 108.881 158.715 109.758H156.741Z" fill="black" fill-opacity="0.29"/>
<path d="M412.006 175L409.85 171.192H408.926V175H406.966V165.228H410.634C411.39 165.228 412.034 165.363 412.566 165.634C413.098 165.895 413.495 166.255 413.756 166.712C414.027 167.16 414.162 167.664 414.162 168.224C414.162 168.868 413.975 169.451 413.602 169.974C413.229 170.487 412.673 170.842 411.936 171.038L414.274 175H412.006ZM408.926 169.722H410.564C411.096 169.722 411.493 169.596 411.754 169.344C412.015 169.083 412.146 168.723 412.146 168.266C412.146 167.818 412.015 167.473 411.754 167.23C411.493 166.978 411.096 166.852 410.564 166.852H408.926V169.722ZM423.145 170.954C423.145 171.234 423.126 171.486 423.089 171.71H417.419C417.465 172.27 417.661 172.709 418.007 173.026C418.352 173.343 418.777 173.502 419.281 173.502C420.009 173.502 420.527 173.189 420.835 172.564H422.949C422.725 173.311 422.295 173.927 421.661 174.412C421.026 174.888 420.247 175.126 419.323 175.126C418.576 175.126 417.904 174.963 417.307 174.636C416.719 174.3 416.257 173.829 415.921 173.222C415.594 172.615 415.431 171.915 415.431 171.122C415.431 170.319 415.594 169.615 415.921 169.008C416.247 168.401 416.705 167.935 417.293 167.608C417.881 167.281 418.557 167.118 419.323 167.118C420.06 167.118 420.718 167.277 421.297 167.594C421.885 167.911 422.337 168.364 422.655 168.952C422.981 169.531 423.145 170.198 423.145 170.954ZM421.115 170.394C421.105 169.89 420.923 169.489 420.569 169.19C420.214 168.882 419.78 168.728 419.267 168.728C418.781 168.728 418.371 168.877 418.035 169.176C417.708 169.465 417.507 169.871 417.433 170.394H421.115ZM424.071 171.108C424.071 170.333 424.23 169.647 424.547 169.05C424.874 168.443 425.313 167.972 425.863 167.636C426.414 167.3 427.021 167.132 427.683 167.132C428.234 167.132 428.719 167.239 429.139 167.454C429.569 167.659 429.914 167.925 430.175 168.252V167.244H432.149V178.696H430.175V173.936C429.914 174.272 429.564 174.552 429.125 174.776C428.687 175 428.192 175.112 427.641 175.112C426.988 175.112 426.386 174.944 425.835 174.608C425.294 174.263 424.865 173.787 424.547 173.18C424.23 172.573 424.071 171.883 424.071 171.108ZM430.175 171.122C430.175 170.646 430.077 170.235 429.881 169.89C429.685 169.545 429.429 169.283 429.111 169.106C428.803 168.929 428.472 168.84 428.117 168.84C427.772 168.84 427.441 168.929 427.123 169.106C426.815 169.283 426.563 169.545 426.367 169.89C426.171 170.226 426.073 170.632 426.073 171.108C426.073 171.584 426.171 171.999 426.367 172.354C426.563 172.699 426.815 172.961 427.123 173.138C427.441 173.315 427.772 173.404 428.117 173.404C428.472 173.404 428.803 173.315 429.111 173.138C429.429 172.961 429.685 172.699 429.881 172.354C430.077 172.009 430.175 171.598 430.175 171.122ZM441.386 167.244V175H439.412V174.02C439.16 174.356 438.828 174.622 438.418 174.818C438.016 175.005 437.578 175.098 437.102 175.098C436.495 175.098 435.958 174.972 435.492 174.72C435.025 174.459 434.656 174.081 434.386 173.586C434.124 173.082 433.994 172.485 433.994 171.794V167.244H435.954V171.514C435.954 172.13 436.108 172.606 436.416 172.942C436.724 173.269 437.144 173.432 437.676 173.432C438.217 173.432 438.642 173.269 438.95 172.942C439.258 172.606 439.412 172.13 439.412 171.514V167.244H441.386ZM450.53 170.954C450.53 171.234 450.511 171.486 450.474 171.71H444.804C444.85 172.27 445.046 172.709 445.392 173.026C445.737 173.343 446.162 173.502 446.666 173.502C447.394 173.502 447.912 173.189 448.22 172.564H450.334C450.11 173.311 449.68 173.927 449.046 174.412C448.411 174.888 447.632 175.126 446.708 175.126C445.961 175.126 445.289 174.963 444.692 174.636C444.104 174.3 443.642 173.829 443.306 173.222C442.979 172.615 442.816 171.915 442.816 171.122C442.816 170.319 442.979 169.615 443.306 169.008C443.632 168.401 444.09 167.935 444.678 167.608C445.266 167.281 445.942 167.118 446.708 167.118C447.445 167.118 448.103 167.277 448.682 167.594C449.27 167.911 449.722 168.364 450.04 168.952C450.366 169.531 450.53 170.198 450.53 170.954ZM448.5 170.394C448.49 169.89 448.308 169.489 447.954 169.19C447.599 168.882 447.165 168.728 446.652 168.728C446.166 168.728 445.756 168.877 445.42 169.176C445.093 169.465 444.892 169.871 444.818 170.394H448.5ZM454.928 175.126C454.293 175.126 453.724 175.014 453.22 174.79C452.716 174.557 452.315 174.244 452.016 173.852C451.727 173.46 451.568 173.026 451.54 172.55H453.514C453.551 172.849 453.696 173.096 453.948 173.292C454.209 173.488 454.531 173.586 454.914 173.586C455.287 173.586 455.577 173.511 455.782 173.362C455.997 173.213 456.104 173.021 456.104 172.788C456.104 172.536 455.973 172.349 455.712 172.228C455.46 172.097 455.054 171.957 454.494 171.808C453.915 171.668 453.439 171.523 453.066 171.374C452.702 171.225 452.385 170.996 452.114 170.688C451.853 170.38 451.722 169.965 451.722 169.442C451.722 169.013 451.843 168.621 452.086 168.266C452.338 167.911 452.693 167.631 453.15 167.426C453.617 167.221 454.163 167.118 454.788 167.118C455.712 167.118 456.449 167.351 457 167.818C457.551 168.275 457.854 168.896 457.91 169.68H456.034C456.006 169.372 455.875 169.129 455.642 168.952C455.418 168.765 455.115 168.672 454.732 168.672C454.377 168.672 454.102 168.737 453.906 168.868C453.719 168.999 453.626 169.181 453.626 169.414C453.626 169.675 453.757 169.876 454.018 170.016C454.279 170.147 454.685 170.282 455.236 170.422C455.796 170.562 456.258 170.707 456.622 170.856C456.986 171.005 457.299 171.239 457.56 171.556C457.831 171.864 457.971 172.275 457.98 172.788C457.98 173.236 457.854 173.637 457.602 173.992C457.359 174.347 457.005 174.627 456.538 174.832C456.081 175.028 455.544 175.126 454.928 175.126ZM461.871 168.854V172.606C461.871 172.867 461.932 173.059 462.053 173.18C462.184 173.292 462.398 173.348 462.697 173.348H463.607V175H462.375C460.723 175 459.897 174.197 459.897 172.592V168.854H458.973V167.244H459.897V165.326H461.871V167.244H463.607V168.854H461.871ZM479.007 165.228V175H477.047V168.644L474.429 175H472.945L470.313 168.644V175H468.353V165.228H470.579L473.687 172.494L476.795 165.228H479.007ZM484.389 175.126C483.642 175.126 482.97 174.963 482.373 174.636C481.775 174.3 481.304 173.829 480.959 173.222C480.623 172.615 480.455 171.915 480.455 171.122C480.455 170.329 480.627 169.629 480.973 169.022C481.327 168.415 481.808 167.949 482.415 167.622C483.021 167.286 483.698 167.118 484.445 167.118C485.191 167.118 485.868 167.286 486.475 167.622C487.081 167.949 487.557 168.415 487.903 169.022C488.257 169.629 488.435 170.329 488.435 171.122C488.435 171.915 488.253 172.615 487.889 173.222C487.534 173.829 487.049 174.3 486.433 174.636C485.826 174.963 485.145 175.126 484.389 175.126ZM484.389 173.418C484.743 173.418 485.075 173.334 485.383 173.166C485.7 172.989 485.952 172.727 486.139 172.382C486.325 172.037 486.419 171.617 486.419 171.122C486.419 170.385 486.223 169.82 485.831 169.428C485.448 169.027 484.977 168.826 484.417 168.826C483.857 168.826 483.385 169.027 483.003 169.428C482.629 169.82 482.443 170.385 482.443 171.122C482.443 171.859 482.625 172.429 482.989 172.83C483.362 173.222 483.829 173.418 484.389 173.418ZM489.368 171.094C489.368 170.31 489.522 169.615 489.83 169.008C490.148 168.401 490.577 167.935 491.118 167.608C491.66 167.281 492.262 167.118 492.924 167.118C493.428 167.118 493.909 167.23 494.366 167.454C494.824 167.669 495.188 167.958 495.458 168.322V164.64H497.446V175H495.458V173.852C495.216 174.235 494.875 174.543 494.436 174.776C493.998 175.009 493.489 175.126 492.91 175.126C492.257 175.126 491.66 174.958 491.118 174.622C490.577 174.286 490.148 173.815 489.83 173.208C489.522 172.592 489.368 171.887 489.368 171.094ZM495.472 171.122C495.472 170.646 495.379 170.24 495.192 169.904C495.006 169.559 494.754 169.297 494.436 169.12C494.119 168.933 493.778 168.84 493.414 168.84C493.05 168.84 492.714 168.929 492.406 169.106C492.098 169.283 491.846 169.545 491.65 169.89C491.464 170.226 491.37 170.627 491.37 171.094C491.37 171.561 491.464 171.971 491.65 172.326C491.846 172.671 492.098 172.937 492.406 173.124C492.724 173.311 493.06 173.404 493.414 173.404C493.778 173.404 494.119 173.315 494.436 173.138C494.754 172.951 495.006 172.69 495.192 172.354C495.379 172.009 495.472 171.598 495.472 171.122ZM506.683 167.244V175H504.709V174.02C504.457 174.356 504.125 174.622 503.715 174.818C503.313 175.005 502.875 175.098 502.399 175.098C501.792 175.098 501.255 174.972 500.789 174.72C500.322 174.459 499.953 174.081 499.683 173.586C499.421 173.082 499.291 172.485 499.291 171.794V167.244H501.251V171.514C501.251 172.13 501.405 172.606 501.713 172.942C502.021 173.269 502.441 173.432 502.973 173.432C503.514 173.432 503.939 173.269 504.247 172.942C504.555 172.606 504.709 172.13 504.709 171.514V167.244H506.683ZM510.576 164.64V175H508.616V164.64H510.576ZM519.723 170.954C519.723 171.234 519.704 171.486 519.667 171.71H513.997C514.044 172.27 514.24 172.709 514.585 173.026C514.93 173.343 515.355 173.502 515.859 173.502C516.587 173.502 517.105 173.189 517.413 172.564H519.527C519.303 173.311 518.874 173.927 518.239 174.412C517.604 174.888 516.825 175.126 515.901 175.126C515.154 175.126 514.482 174.963 513.885 174.636C513.297 174.3 512.835 173.829 512.499 173.222C512.172 172.615 512.009 171.915 512.009 171.122C512.009 170.319 512.172 169.615 512.499 169.008C512.826 168.401 513.283 167.935 513.871 167.608C514.459 167.281 515.136 167.118 515.901 167.118C516.638 167.118 517.296 167.277 517.875 167.594C518.463 167.911 518.916 168.364 519.233 168.952C519.56 169.531 519.723 170.198 519.723 170.954ZM517.693 170.394C517.684 169.89 517.502 169.489 517.147 169.19C516.792 168.882 516.358 168.728 515.845 168.728C515.36 168.728 514.949 168.877 514.613 169.176C514.286 169.465 514.086 169.871 514.011 170.394H517.693ZM410.34 211.098C409.659 211.098 409.043 210.981 408.492 210.748C407.951 210.515 407.521 210.179 407.204 209.74C406.887 209.301 406.723 208.783 406.714 208.186H408.814C408.842 208.587 408.982 208.905 409.234 209.138C409.495 209.371 409.85 209.488 410.298 209.488C410.755 209.488 411.115 209.381 411.376 209.166C411.637 208.942 411.768 208.653 411.768 208.298C411.768 208.009 411.679 207.771 411.502 207.584C411.325 207.397 411.101 207.253 410.83 207.15C410.569 207.038 410.205 206.917 409.738 206.786C409.103 206.599 408.585 206.417 408.184 206.24C407.792 206.053 407.451 205.778 407.162 205.414C406.882 205.041 406.742 204.546 406.742 203.93C406.742 203.351 406.887 202.847 407.176 202.418C407.465 201.989 407.871 201.662 408.394 201.438C408.917 201.205 409.514 201.088 410.186 201.088C411.194 201.088 412.011 201.335 412.636 201.83C413.271 202.315 413.621 202.997 413.686 203.874H411.53C411.511 203.538 411.367 203.263 411.096 203.048C410.835 202.824 410.485 202.712 410.046 202.712C409.663 202.712 409.355 202.81 409.122 203.006C408.898 203.202 408.786 203.487 408.786 203.86C408.786 204.121 408.87 204.341 409.038 204.518C409.215 204.686 409.43 204.826 409.682 204.938C409.943 205.041 410.307 205.162 410.774 205.302C411.409 205.489 411.927 205.675 412.328 205.862C412.729 206.049 413.075 206.329 413.364 206.702C413.653 207.075 413.798 207.565 413.798 208.172C413.798 208.695 413.663 209.18 413.392 209.628C413.121 210.076 412.725 210.435 412.202 210.706C411.679 210.967 411.059 211.098 410.34 211.098ZM414.993 207.122C414.993 206.319 415.157 205.619 415.483 205.022C415.81 204.415 416.263 203.949 416.841 203.622C417.42 203.286 418.083 203.118 418.829 203.118C419.791 203.118 420.584 203.361 421.209 203.846C421.844 204.322 422.269 204.994 422.483 205.862H420.369C420.257 205.526 420.066 205.265 419.795 205.078C419.534 204.882 419.207 204.784 418.815 204.784C418.255 204.784 417.812 204.989 417.485 205.4C417.159 205.801 416.995 206.375 416.995 207.122C416.995 207.859 417.159 208.433 417.485 208.844C417.812 209.245 418.255 209.446 418.815 209.446C419.609 209.446 420.127 209.091 420.369 208.382H422.483C422.269 209.222 421.844 209.889 421.209 210.384C420.575 210.879 419.781 211.126 418.829 211.126C418.083 211.126 417.42 210.963 416.841 210.636C416.263 210.3 415.81 209.833 415.483 209.236C415.157 208.629 414.993 207.925 414.993 207.122ZM425.879 204.448C426.131 204.037 426.458 203.715 426.859 203.482C427.27 203.249 427.736 203.132 428.259 203.132V205.19H427.741C427.125 205.19 426.658 205.335 426.341 205.624C426.033 205.913 425.879 206.417 425.879 207.136V211H423.919V203.244H425.879V204.448ZM436.789 206.954C436.789 207.234 436.771 207.486 436.733 207.71H431.063C431.11 208.27 431.306 208.709 431.651 209.026C431.997 209.343 432.421 209.502 432.925 209.502C433.653 209.502 434.171 209.189 434.479 208.564H436.593C436.369 209.311 435.94 209.927 435.305 210.412C434.671 210.888 433.891 211.126 432.967 211.126C432.221 211.126 431.549 210.963 430.951 210.636C430.363 210.3 429.901 209.829 429.565 209.222C429.239 208.615 429.075 207.915 429.075 207.122C429.075 206.319 429.239 205.615 429.565 205.008C429.892 204.401 430.349 203.935 430.937 203.608C431.525 203.281 432.202 203.118 432.967 203.118C433.705 203.118 434.363 203.277 434.941 203.594C435.529 203.911 435.982 204.364 436.299 204.952C436.626 205.531 436.789 206.198 436.789 206.954ZM434.759 206.394C434.75 205.89 434.568 205.489 434.213 205.19C433.859 204.882 433.425 204.728 432.911 204.728C432.426 204.728 432.015 204.877 431.679 205.176C431.353 205.465 431.152 205.871 431.077 206.394H434.759ZM445.43 206.954C445.43 207.234 445.411 207.486 445.374 207.71H439.704C439.751 208.27 439.947 208.709 440.292 209.026C440.637 209.343 441.062 209.502 441.566 209.502C442.294 209.502 442.812 209.189 443.12 208.564H445.234C445.01 209.311 444.581 209.927 443.946 210.412C443.311 210.888 442.532 211.126 441.608 211.126C440.861 211.126 440.189 210.963 439.592 210.636C439.004 210.3 438.542 209.829 438.206 209.222C437.879 208.615 437.716 207.915 437.716 207.122C437.716 206.319 437.879 205.615 438.206 205.008C438.533 204.401 438.99 203.935 439.578 203.608C440.166 203.281 440.843 203.118 441.608 203.118C442.345 203.118 443.003 203.277 443.582 203.594C444.17 203.911 444.623 204.364 444.94 204.952C445.267 205.531 445.43 206.198 445.43 206.954ZM443.4 206.394C443.391 205.89 443.209 205.489 442.854 205.19C442.499 204.882 442.065 204.728 441.552 204.728C441.067 204.728 440.656 204.877 440.32 205.176C439.993 205.465 439.793 205.871 439.718 206.394H443.4ZM451.159 203.132C452.083 203.132 452.829 203.426 453.399 204.014C453.968 204.593 454.253 205.405 454.253 206.45V211H452.293V206.716C452.293 206.1 452.139 205.629 451.831 205.302C451.523 204.966 451.103 204.798 450.571 204.798C450.029 204.798 449.6 204.966 449.283 205.302C448.975 205.629 448.821 206.1 448.821 206.716V211H446.861V203.244H448.821V204.21C449.082 203.874 449.413 203.613 449.815 203.426C450.225 203.23 450.673 203.132 451.159 203.132ZM459.084 211.126C458.45 211.126 457.88 211.014 457.376 210.79C456.872 210.557 456.471 210.244 456.172 209.852C455.883 209.46 455.724 209.026 455.696 208.55H457.67C457.708 208.849 457.852 209.096 458.104 209.292C458.366 209.488 458.688 209.586 459.07 209.586C459.444 209.586 459.733 209.511 459.938 209.362C460.153 209.213 460.26 209.021 460.26 208.788C460.26 208.536 460.13 208.349 459.868 208.228C459.616 208.097 459.21 207.957 458.65 207.808C458.072 207.668 457.596 207.523 457.222 207.374C456.858 207.225 456.541 206.996 456.27 206.688C456.009 206.38 455.878 205.965 455.878 205.442C455.878 205.013 456 204.621 456.242 204.266C456.494 203.911 456.849 203.631 457.306 203.426C457.773 203.221 458.319 203.118 458.944 203.118C459.868 203.118 460.606 203.351 461.156 203.818C461.707 204.275 462.01 204.896 462.066 205.68H460.19C460.162 205.372 460.032 205.129 459.798 204.952C459.574 204.765 459.271 204.672 458.888 204.672C458.534 204.672 458.258 204.737 458.062 204.868C457.876 204.999 457.782 205.181 457.782 205.414C457.782 205.675 457.913 205.876 458.174 206.016C458.436 206.147 458.842 206.282 459.392 206.422C459.952 206.562 460.414 206.707 460.778 206.856C461.142 207.005 461.455 207.239 461.716 207.556C461.987 207.864 462.127 208.275 462.136 208.788C462.136 209.236 462.01 209.637 461.758 209.992C461.516 210.347 461.161 210.627 460.694 210.832C460.237 211.028 459.7 211.126 459.084 211.126ZM468.113 203.132C468.701 203.132 469.224 203.263 469.681 203.524C470.139 203.776 470.493 204.154 470.745 204.658C471.007 205.153 471.137 205.75 471.137 206.45V211H469.177V206.716C469.177 206.1 469.023 205.629 468.715 205.302C468.407 204.966 467.987 204.798 467.455 204.798C466.914 204.798 466.485 204.966 466.167 205.302C465.859 205.629 465.705 206.1 465.705 206.716V211H463.745V200.64H465.705V204.21C465.957 203.874 466.293 203.613 466.713 203.426C467.133 203.23 467.6 203.132 468.113 203.132ZM476.445 211.126C475.698 211.126 475.026 210.963 474.429 210.636C473.832 210.3 473.36 209.829 473.015 209.222C472.679 208.615 472.511 207.915 472.511 207.122C472.511 206.329 472.684 205.629 473.029 205.022C473.384 204.415 473.864 203.949 474.471 203.622C475.078 203.286 475.754 203.118 476.501 203.118C477.248 203.118 477.924 203.286 478.531 203.622C479.138 203.949 479.614 204.415 479.959 205.022C480.314 205.629 480.491 206.329 480.491 207.122C480.491 207.915 480.309 208.615 479.945 209.222C479.59 209.829 479.105 210.3 478.489 210.636C477.882 210.963 477.201 211.126 476.445 211.126ZM476.445 209.418C476.8 209.418 477.131 209.334 477.439 209.166C477.756 208.989 478.008 208.727 478.195 208.382C478.382 208.037 478.475 207.617 478.475 207.122C478.475 206.385 478.279 205.82 477.887 205.428C477.504 205.027 477.033 204.826 476.473 204.826C475.913 204.826 475.442 205.027 475.059 205.428C474.686 205.82 474.499 206.385 474.499 207.122C474.499 207.859 474.681 208.429 475.045 208.83C475.418 209.222 475.885 209.418 476.445 209.418ZM484.211 204.854V208.606C484.211 208.867 484.272 209.059 484.393 209.18C484.524 209.292 484.738 209.348 485.037 209.348H485.947V211H484.715C483.063 211 482.237 210.197 482.237 208.592V204.854H481.313V203.244H482.237V201.326H484.211V203.244H485.947V204.854H484.211ZM410.354 249.758C409.449 248.881 408.744 247.761 408.24 246.398C407.745 245.035 407.498 243.575 407.498 242.016C407.498 240.42 407.759 238.922 408.282 237.522C408.805 236.113 409.565 234.96 410.564 234.064H412.538V234.246C411.511 235.226 410.727 236.402 410.186 237.774C409.654 239.146 409.388 240.56 409.388 242.016C409.388 243.435 409.64 244.807 410.144 246.132C410.657 247.448 411.385 248.591 412.328 249.562V249.758H410.354ZM420.971 242.954C420.971 243.234 420.952 243.486 420.915 243.71H415.245C415.292 244.27 415.488 244.709 415.833 245.026C416.178 245.343 416.603 245.502 417.107 245.502C417.835 245.502 418.353 245.189 418.661 244.564H420.775C420.551 245.311 420.122 245.927 419.487 246.412C418.852 246.888 418.073 247.126 417.149 247.126C416.402 247.126 415.73 246.963 415.133 246.636C414.545 246.3 414.083 245.829 413.747 245.222C413.42 244.615 413.257 243.915 413.257 243.122C413.257 242.319 413.42 241.615 413.747 241.008C414.074 240.401 414.531 239.935 415.119 239.608C415.707 239.281 416.384 239.118 417.149 239.118C417.886 239.118 418.544 239.277 419.123 239.594C419.711 239.911 420.164 240.364 420.481 240.952C420.808 241.531 420.971 242.198 420.971 242.954ZM418.941 242.394C418.932 241.89 418.75 241.489 418.395 241.19C418.04 240.882 417.606 240.728 417.093 240.728C416.608 240.728 416.197 240.877 415.861 241.176C415.534 241.465 415.334 241.871 415.259 242.394H418.941ZM432.034 239.132C432.986 239.132 433.751 239.426 434.33 240.014C434.918 240.593 435.212 241.405 435.212 242.45V247H433.252V242.716C433.252 242.109 433.098 241.647 432.79 241.33C432.482 241.003 432.062 240.84 431.53 240.84C430.998 240.84 430.573 241.003 430.256 241.33C429.948 241.647 429.794 242.109 429.794 242.716V247H427.834V242.716C427.834 242.109 427.68 241.647 427.372 241.33C427.064 241.003 426.644 240.84 426.112 240.84C425.57 240.84 425.141 241.003 424.824 241.33C424.516 241.647 424.362 242.109 424.362 242.716V247H422.402V239.244H424.362V240.182C424.614 239.855 424.936 239.599 425.328 239.412C425.729 239.225 426.168 239.132 426.644 239.132C427.25 239.132 427.792 239.263 428.268 239.524C428.744 239.776 429.112 240.14 429.374 240.616C429.626 240.168 429.99 239.809 430.466 239.538C430.951 239.267 431.474 239.132 432.034 239.132ZM439.031 240.364C439.283 240.009 439.629 239.715 440.067 239.482C440.515 239.239 441.024 239.118 441.593 239.118C442.256 239.118 442.853 239.281 443.385 239.608C443.927 239.935 444.351 240.401 444.659 241.008C444.977 241.605 445.135 242.301 445.135 243.094C445.135 243.887 444.977 244.592 444.659 245.208C444.351 245.815 443.927 246.286 443.385 246.622C442.853 246.958 442.256 247.126 441.593 247.126C441.024 247.126 440.52 247.009 440.081 246.776C439.652 246.543 439.302 246.249 439.031 245.894V250.696H437.071V239.244H439.031V240.364ZM443.133 243.094C443.133 242.627 443.035 242.226 442.839 241.89C442.653 241.545 442.401 241.283 442.083 241.106C441.775 240.929 441.439 240.84 441.075 240.84C440.721 240.84 440.385 240.933 440.067 241.12C439.759 241.297 439.507 241.559 439.311 241.904C439.125 242.249 439.031 242.655 439.031 243.122C439.031 243.589 439.125 243.995 439.311 244.34C439.507 244.685 439.759 244.951 440.067 245.138C440.385 245.315 440.721 245.404 441.075 245.404C441.439 245.404 441.775 245.311 442.083 245.124C442.401 244.937 442.653 244.671 442.839 244.326C443.035 243.981 443.133 243.57 443.133 243.094ZM448.52 236.64V247H446.56V236.64H448.52ZM453.9 247.126C453.154 247.126 452.482 246.963 451.884 246.636C451.287 246.3 450.816 245.829 450.47 245.222C450.134 244.615 449.966 243.915 449.966 243.122C449.966 242.329 450.139 241.629 450.484 241.022C450.839 240.415 451.32 239.949 451.926 239.622C452.533 239.286 453.21 239.118 453.956 239.118C454.703 239.118 455.38 239.286 455.986 239.622C456.593 239.949 457.069 240.415 457.414 241.022C457.769 241.629 457.946 242.329 457.946 243.122C457.946 243.915 457.764 244.615 457.4 245.222C457.046 245.829 456.56 246.3 455.944 246.636C455.338 246.963 454.656 247.126 453.9 247.126ZM453.9 245.418C454.255 245.418 454.586 245.334 454.894 245.166C455.212 244.989 455.464 244.727 455.65 244.382C455.837 244.037 455.93 243.617 455.93 243.122C455.93 242.385 455.734 241.82 455.342 241.428C454.96 241.027 454.488 240.826 453.928 240.826C453.368 240.826 452.897 241.027 452.514 241.428C452.141 241.82 451.954 242.385 451.954 243.122C451.954 243.859 452.136 244.429 452.5 244.83C452.874 245.222 453.34 245.418 453.9 245.418ZM466.804 239.244L462.002 250.668H459.916L461.596 246.804L458.488 239.244H460.686L462.688 244.662L464.718 239.244H466.804ZM475.071 242.954C475.071 243.234 475.052 243.486 475.015 243.71H469.345C469.391 244.27 469.587 244.709 469.933 245.026C470.278 245.343 470.703 245.502 471.207 245.502C471.935 245.502 472.453 245.189 472.761 244.564H474.875C474.651 245.311 474.221 245.927 473.587 246.412C472.952 246.888 472.173 247.126 471.249 247.126C470.502 247.126 469.83 246.963 469.233 246.636C468.645 246.3 468.183 245.829 467.847 245.222C467.52 244.615 467.357 243.915 467.357 243.122C467.357 242.319 467.52 241.615 467.847 241.008C468.173 240.401 468.631 239.935 469.219 239.608C469.807 239.281 470.483 239.118 471.249 239.118C471.986 239.118 472.644 239.277 473.223 239.594C473.811 239.911 474.263 240.364 474.581 240.952C474.907 241.531 475.071 242.198 475.071 242.954ZM473.041 242.394C473.031 241.89 472.849 241.489 472.495 241.19C472.14 240.882 471.706 240.728 471.193 240.728C470.707 240.728 470.297 240.877 469.961 241.176C469.634 241.465 469.433 241.871 469.359 242.394H473.041ZM483.711 242.954C483.711 243.234 483.692 243.486 483.655 243.71H477.985C478.032 244.27 478.228 244.709 478.573 245.026C478.918 245.343 479.343 245.502 479.847 245.502C480.575 245.502 481.093 245.189 481.401 244.564H483.515C483.291 245.311 482.862 245.927 482.227 246.412C481.592 246.888 480.813 247.126 479.889 247.126C479.142 247.126 478.47 246.963 477.873 246.636C477.285 246.3 476.823 245.829 476.487 245.222C476.16 244.615 475.997 243.915 475.997 243.122C475.997 242.319 476.16 241.615 476.487 241.008C476.814 240.401 477.271 239.935 477.859 239.608C478.447 239.281 479.124 239.118 479.889 239.118C480.626 239.118 481.284 239.277 481.863 239.594C482.451 239.911 482.904 240.364 483.221 240.952C483.548 241.531 483.711 242.198 483.711 242.954ZM481.681 242.394C481.672 241.89 481.49 241.489 481.135 241.19C480.78 240.882 480.346 240.728 479.833 240.728C479.348 240.728 478.937 240.877 478.601 241.176C478.274 241.465 478.074 241.871 477.999 242.394H481.681ZM491.106 241.176V242.828H485.17V241.176H491.106ZM502.936 239.132C503.888 239.132 504.653 239.426 505.232 240.014C505.82 240.593 506.114 241.405 506.114 242.45V247H504.154V242.716C504.154 242.109 504 241.647 503.692 241.33C503.384 241.003 502.964 240.84 502.432 240.84C501.9 240.84 501.475 241.003 501.158 241.33C500.85 241.647 500.696 242.109 500.696 242.716V247H498.736V242.716C498.736 242.109 498.582 241.647 498.274 241.33C497.966 241.003 497.546 240.84 497.014 240.84C496.473 240.84 496.043 241.003 495.726 241.33C495.418 241.647 495.264 242.109 495.264 242.716V247H493.304V239.244H495.264V240.182C495.516 239.855 495.838 239.599 496.23 239.412C496.631 239.225 497.07 239.132 497.546 239.132C498.153 239.132 498.694 239.263 499.17 239.524C499.646 239.776 500.015 240.14 500.276 240.616C500.528 240.168 500.892 239.809 501.368 239.538C501.853 239.267 502.376 239.132 502.936 239.132ZM511.418 247.126C510.671 247.126 509.999 246.963 509.402 246.636C508.804 246.3 508.333 245.829 507.988 245.222C507.652 244.615 507.484 243.915 507.484 243.122C507.484 242.329 507.656 241.629 508.002 241.022C508.356 240.415 508.837 239.949 509.444 239.622C510.05 239.286 510.727 239.118 511.474 239.118C512.22 239.118 512.897 239.286 513.504 239.622C514.11 239.949 514.586 240.415 514.932 241.022C515.286 241.629 515.464 242.329 515.464 243.122C515.464 243.915 515.282 244.615 514.918 245.222C514.563 245.829 514.078 246.3 513.462 246.636C512.855 246.963 512.174 247.126 511.418 247.126ZM511.418 245.418C511.772 245.418 512.104 245.334 512.412 245.166C512.729 244.989 512.981 244.727 513.168 244.382C513.354 244.037 513.448 243.617 513.448 243.122C513.448 242.385 513.252 241.82 512.86 241.428C512.477 241.027 512.006 240.826 511.446 240.826C510.886 240.826 510.414 241.027 510.032 241.428C509.658 241.82 509.472 242.385 509.472 243.122C509.472 243.859 509.654 244.429 510.018 244.83C510.391 245.222 510.858 245.418 511.418 245.418ZM518.862 240.378C519.114 240.005 519.459 239.701 519.898 239.468C520.346 239.235 520.854 239.118 521.424 239.118C522.086 239.118 522.684 239.281 523.216 239.608C523.757 239.935 524.182 240.401 524.49 241.008C524.807 241.605 524.966 242.301 524.966 243.094C524.966 243.887 524.807 244.592 524.49 245.208C524.182 245.815 523.757 246.286 523.216 246.622C522.684 246.958 522.086 247.126 521.424 247.126C520.845 247.126 520.336 247.014 519.898 246.79C519.468 246.557 519.123 246.258 518.862 245.894V247H516.902V236.64H518.862V240.378ZM522.964 243.094C522.964 242.627 522.866 242.226 522.67 241.89C522.483 241.545 522.231 241.283 521.914 241.106C521.606 240.929 521.27 240.84 520.906 240.84C520.551 240.84 520.215 240.933 519.898 241.12C519.59 241.297 519.338 241.559 519.142 241.904C518.955 242.249 518.862 242.655 518.862 243.122C518.862 243.589 518.955 243.995 519.142 244.34C519.338 244.685 519.59 244.951 519.898 245.138C520.215 245.315 520.551 245.404 520.906 245.404C521.27 245.404 521.606 245.311 521.914 245.124C522.231 244.937 522.483 244.671 522.67 244.326C522.866 243.981 522.964 243.57 522.964 243.094ZM527.384 238.32C527.038 238.32 526.749 238.213 526.516 237.998C526.292 237.774 526.18 237.499 526.18 237.172C526.18 236.845 526.292 236.575 526.516 236.36C526.749 236.136 527.038 236.024 527.384 236.024C527.729 236.024 528.014 236.136 528.238 236.36C528.471 236.575 528.588 236.845 528.588 237.172C528.588 237.499 528.471 237.774 528.238 237.998C528.014 238.213 527.729 238.32 527.384 238.32ZM528.35 239.244V247H526.39V239.244H528.35ZM532.246 236.64V247H530.286V236.64H532.246ZM541.393 242.954C541.393 243.234 541.374 243.486 541.337 243.71H535.667C535.713 244.27 535.909 244.709 536.255 245.026C536.6 245.343 537.025 245.502 537.529 245.502C538.257 245.502 538.775 245.189 539.083 244.564H541.197C540.973 245.311 540.543 245.927 539.909 246.412C539.274 246.888 538.495 247.126 537.571 247.126C536.824 247.126 536.152 246.963 535.555 246.636C534.967 246.3 534.505 245.829 534.169 245.222C533.842 244.615 533.679 243.915 533.679 243.122C533.679 242.319 533.842 241.615 534.169 241.008C534.495 240.401 534.953 239.935 535.541 239.608C536.129 239.281 536.805 239.118 537.571 239.118C538.308 239.118 538.966 239.277 539.545 239.594C540.133 239.911 540.585 240.364 540.903 240.952C541.229 241.531 541.393 242.198 541.393 242.954ZM539.363 242.394C539.353 241.89 539.171 241.489 538.817 241.19C538.462 240.882 538.028 240.728 537.515 240.728C537.029 240.728 536.619 240.877 536.283 241.176C535.956 241.465 535.755 241.871 535.681 242.394H539.363ZM542.319 249.758V249.562C543.262 248.591 543.985 247.448 544.489 246.132C545.003 244.807 545.259 243.435 545.259 242.016C545.259 240.56 544.989 239.146 544.447 237.774C543.915 236.402 543.136 235.226 542.109 234.246V234.064H544.083C545.082 234.96 545.843 236.113 546.365 237.522C546.888 238.922 547.149 240.42 547.149 242.016C547.149 243.575 546.897 245.035 546.393 246.398C545.899 247.761 545.199 248.881 544.293 249.758H542.319Z" fill="black" fill-opacity="0.29"/>
</svg>
