<svg width="20" height="14" viewBox="0 0 20 14" fill="none" xmlns="http://www.w3.org/2000/svg">
<path d="M19.085 2.30851C18.8669 1.48732 18.2244 0.840589 17.4085 0.62111C15.9297 0.22229 9.99979 0.22229 9.99979 0.22229C9.99979 0.22229 4.06993 0.22229 2.59107 0.62111C1.7752 0.840623 1.13264 1.48732 0.914545 2.30851C0.518295 3.79694 0.518295 6.90243 0.518295 6.90243C0.518295 6.90243 0.518295 10.0079 0.914545 11.4964C1.13264 12.3175 1.7752 12.9373 2.59107 13.1568C4.06993 13.5556 9.99979 13.5556 9.99979 13.5556C9.99979 13.5556 15.9296 13.5556 17.4085 13.1568C18.2244 12.9373 18.8669 12.3175 19.085 11.4964C19.4813 10.0079 19.4813 6.90243 19.4813 6.90243C19.4813 6.90243 19.4813 3.79694 19.085 2.30851ZM8.06038 9.72198V4.08288L13.0166 6.9025L8.06038 9.72198Z" fill="#7D918B"/>
</svg>
