<svg width="56" height="41" viewBox="0 0 56 41" fill="none" xmlns="http://www.w3.org/2000/svg">
<path d="M56 0H0V41H56V0Z" fill="#E3323D"/>
<path d="M17.4153 14.0859H12.0669V26.9424H17.4153V14.0859Z" fill="white"/>
<path d="M17.4153 13.4044H14.8407C14.1051 13.4044 13.3995 13.1142 12.8793 12.5976C12.3591 12.0809 12.0669 11.3803 12.0669 10.6497V8.83203H14.6415C15.0059 8.83181 15.3669 8.90297 15.7036 9.04144C16.0404 9.1799 16.3463 9.38295 16.6039 9.63897C16.8616 9.89499 17.0659 10.199 17.2051 10.5335C17.3443 10.868 17.4157 11.2265 17.4153 11.5884V13.4044Z" fill="white"/>
<path d="M38.8685 14.2109L36.1466 21.0965L33.4239 14.082L30.7446 20.8055L33.4289 27.2279L31.2168 32.1662H36.6448L43.9365 14.2059L38.8685 14.2109Z" fill="white"/>
<path d="M27.6421 14.082L24.8499 20.9684L22.246 14.082H18.1016V17.408L21.963 26.9419H27.5006L32.7067 14.082H27.6421Z" fill="white"/>
</svg>
