<svg width="56" height="41" viewBox="0 0 56 41" fill="none" xmlns="http://www.w3.org/2000/svg">
<path d="M10.231 9.13086H1V31.4734H10.231V9.13086Z" fill="#E3323D"/>
<path d="M10.2281 7.94654H5.78676C4.51706 7.94654 3.2993 7.44249 2.40101 6.54514C1.50273 5.6478 0.997416 4.43055 0.996094 3.16085V0H5.44045C6.06957 0 6.69251 0.123916 7.27374 0.36467C7.85497 0.605424 8.38311 0.958298 8.82797 1.40315C9.27282 1.84801 9.62569 2.37613 9.86644 2.95737C10.1072 3.5386 10.2311 4.16156 10.2311 4.79068L10.2281 7.94654Z" fill="#0E5860"/>
<path d="M47.256 9.34843L42.5652 21.3162L37.8653 9.13086L33.2354 20.8141L37.8643 31.9774L34.0477 40.5607H43.4145L55.9991 9.35043L47.256 9.34843Z" fill="#E3323D"/>
<path d="M27.8826 9.13086L23.063 21.0986L18.5718 9.13086H11.4187V14.9106L18.0817 31.4784H27.6392L36.6217 9.13585L27.8826 9.13086Z" fill="#E3323D"/>
</svg>
